SplineFontDB: 3.2
FontName: SWCrawlTitle
FullName: SW Crawl Title
FamilyName: SW Crawl Title
Weight: Book
Copyright: Created by Matt Pfingsten 4/26/2002
Version: 1.00; April 26, 2002
ItalicAngle: 0
UnderlinePosition: -284
UnderlineWidth: 48
Ascent: 1638
Descent: 410
InvalidEm: 0
sfntRevision: 0x00010000
LayerCount: 2
Layer: 0 1 "Back" 1
Layer: 1 1 "Fore" 0
XUID: [1021 12 1313103000 6587271]
StyleMap: 0x0000
FSType: 0
OS2Version: 1
OS2_WeightWidthSlopeOnly: 0
OS2_UseTypoMetrics: 0
CreationTime: 1607437986
ModificationTime: 1607440646
PfmFamily: 17
TTFWeight: 400
TTFWidth: 5
LineGap: 184
VLineGap: 0
Panose: 2 0 5 3 0 0 0 0 0 0
OS2TypoAscent: 1638
OS2TypoAOffset: 0
OS2TypoDescent: -410
OS2TypoDOffset: 0
OS2TypoLinegap: 184
OS2WinAscent: 1605
OS2WinAOffset: 0
OS2WinDescent: 344
OS2WinDOffset: 0
HheadAscent: 1605
HheadAOffset: 0
HheadDescent: -344
HheadDOffset: 0
OS2SubXSize: 1331
OS2SubYSize: 1433
OS2SubXOff: 0
OS2SubYOff: 286
OS2SupXSize: 1331
OS2SupYSize: 1433
OS2SupXOff: 0
OS2SupYOff: 983
OS2StrikeYSize: 102
OS2StrikeYPos: 530
OS2Vendor: 'PfEd'
OS2CodePages: 00000001.00000000
OS2UnicodeRanges: 00000001.00000000.00000000.00000000
DEI: 91125
ShortTable: maxp 16
  1
  0
  98
  1037
  55
  0
  0
  2
  0
  1
  1
  0
  64
  0
  0
  0
EndShort
LangName: 1033 "" "" "" "FontForge 2.0 : SW Crawl Title : 8-12-2020"
GaspTable: 1 65535 2 0
Encoding: UnicodeBmp
UnicodeInterp: none
NameList: AGL For New Fonts
DisplaySize: -48
AntiAlias: 1
FitToEm: 0
WinInfo: 44 22 8
BeginChars: 65537 98

StartChar: .notdef
Encoding: 65536 -1 0
Width: 500
Flags: W
LayerCount: 2
Fore
SplineSet
256 0 m 1,0,-1
 256 1280 l 1,1,-1
 1280 1280 l 1,2,-1
 1280 0 l 1,3,-1
 256 0 l 1,0,-1
288 32 m 1,4,-1
 1248 32 l 1,5,-1
 1248 1248 l 1,6,-1
 288 1248 l 1,7,-1
 288 32 l 1,4,-1
EndSplineSet
Validated: 1
EndChar

StartChar: exclam
Encoding: 33 33 4
Width: 339
GlyphClass: 2
Flags: W
LayerCount: 2
Fore
SplineSet
1 243 m 1,0,-1
 240 243 l 1,1,-1
 240 0 l 1,2,-1
 1 0 l 1,3,-1
 1 243 l 1,0,-1
240 392 m 1,4,-1
 1 392 l 1,5,-1
 1 1500 l 1,6,-1
 240 1500 l 1,7,-1
 240 392 l 1,4,-1
EndSplineSet
Validated: 1
EndChar

StartChar: quotedbl
Encoding: 34 34 5
Width: 1047
GlyphClass: 2
Flags: W
LayerCount: 2
Fore
SplineSet
261 1365 m 1,0,-1
 471 1365 l 1,1,-1
 439 805 l 1,2,-1
 294 805 l 1,3,-1
 261 1365 l 1,0,-1
575 1365 m 1,4,-1
 785 1365 l 1,5,-1
 753 805 l 1,6,-1
 607 805 l 1,7,-1
 575 1365 l 1,4,-1
EndSplineSet
Validated: 1
EndChar

StartChar: numbersign
Encoding: 35 35 6
Width: 1046
GlyphClass: 2
Flags: W
LayerCount: 2
Fore
SplineSet
258 1365 m 1,0,-1
 405 1365 l 1,1,-1
 406 969 l 1,2,-1
 633 969 l 1,3,-1
 632 1365 l 1,4,-1
 779 1365 l 1,5,-1
 780 969 l 1,6,-1
 978 969 l 1,7,-1
 979 830 l 1,8,-1
 781 830 l 1,9,-1
 781 566 l 1,10,-1
 979 566 l 1,11,-1
 980 426 l 1,12,-1
 782 426 l 1,13,-1
 783 0 l 1,14,-1
 635 0 l 1,15,-1
 635 426 l 1,16,-1
 408 426 l 1,17,-1
 408 0 l 1,18,-1
 261 0 l 1,19,-1
 261 426 l 1,20,-1
 63 426 l 1,21,-1
 62 566 l 1,22,-1
 260 566 l 1,23,-1
 260 830 l 1,24,-1
 62 830 l 1,25,-1
 60 969 l 1,26,-1
 258 969 l 1,27,-1
 258 1365 l 1,0,-1
407 830 m 1,28,-1
 407 566 l 1,29,-1
 634 566 l 1,30,-1
 634 830 l 1,31,-1
 407 830 l 1,28,-1
EndSplineSet
Validated: 1
EndChar

StartChar: dollar
Encoding: 36 36 7
Width: 600
GlyphClass: 2
Flags: W
LayerCount: 2
Fore
SplineSet
190 1596 m 1,0,-1
 320 1596 l 1,1,-1
 320 -89 l 1,2,-1
 190 -89 l 1,3,-1
 190 1596 l 1,0,-1
0 397 m 1,4,-1
 149 397 l 1,5,6
 157 295 157 295 169 258 c 0,7,8
 182 218 182 218 203 205 c 128,-1,9
 224 192 224 192 244 187 c 256,10,11
 264 182 264 182 292 187 c 0,12,13
 319 191 319 191 333 234 c 0,14,15
 346 275 346 275 352 314 c 0,16,17
 357 353 357 353 348 419 c 1,18,19
 348 483 348 483 340 533 c 0,20,21
 333 577 333 577 306 623 c 1,22,23
 304 657 304 657 210 719 c 0,24,25
 113 785 113 785 81 825 c 1,26,27
 46 859 46 859 23 924 c 0,28,29
 1 989 1 989 1 1100 c 0,30,31
 1 1210 1 1210 28 1306 c 0,32,33
 56 1403 56 1403 106 1450 c 0,34,35
 157 1500 157 1500 238 1500 c 1,36,37
 358 1510 358 1510 420 1453 c 0,38,39
 480 1396 480 1396 492 1320 c 0,40,41
 503 1240 503 1240 500 1103 c 1,42,-1
 355 1103 l 1,43,44
 357 1243 357 1243 347 1283 c 0,45,46
 337 1326 337 1326 289 1338 c 0,47,48
 241 1352 241 1352 205 1326 c 0,49,50
 168 1299 168 1299 156 1252 c 0,51,52
 142 1206 142 1206 142 1113 c 0,53,54
 142 1033 142 1033 158 994 c 1,55,56
 163 944 163 944 267 886 c 0,57,58
 374 826 374 826 410 789 c 0,59,60
 474 719 474 719 486 636 c 0,61,62
 500 556 500 556 500 434 c 0,63,64
 500 322 500 322 480 216 c 0,65,66
 459 114 459 114 414 57 c 128,-1,67
 369 0 369 0 268 0 c 0,68,69
 151 0 151 0 100 58 c 0,70,71
 50 117 50 117 27 175 c 0,72,73
 3 235 3 235 0 397 c 1,4,-1
EndSplineSet
Validated: 37
EndChar

StartChar: percent
Encoding: 37 37 8
Width: 1395
GlyphClass: 2
Flags: W
LayerCount: 2
Fore
SplineSet
624 1024 m 128,-1,1
 624 853 624 853 550 763 c 0,2,3
 478 671 478 671 356 671 c 128,-1,4
 234 671 234 671 161 762 c 0,5,6
 87 854 87 854 87 1024 c 0,7,8
 87 1192 87 1192 160 1285 c 0,9,10
 235 1377 235 1377 356 1377 c 128,-1,11
 477 1377 477 1377 550 1286 c 0,12,0
 624 1195 624 1195 624 1024 c 128,-1,1
465 1024 m 0,13,14
 465 1252 465 1252 356 1252 c 0,15,16
 246 1252 246 1252 246 1024 c 0,17,18
 246 797 246 797 355 797 c 0,19,20
 465 797 465 797 465 1024 c 0,13,14
965 1365 m 1,21,-1
 1100 1365 l 1,22,-1
 434 0 l 1,23,-1
 299 0 l 1,24,-1
 965 1365 l 1,21,-1
1308 341 m 0,25,26
 1308 170 1308 170 1234 80 c 0,27,28
 1162 -12 1162 -12 1039 -12 c 0,29,30
 919 -12 919 -12 844 80 c 0,31,32
 771 173 771 173 771 341 c 0,33,34
 771 511 771 511 845 602 c 0,35,36
 918 694 918 694 1039 694 c 128,-1,37
 1160 694 1160 694 1234 602 c 128,-1,38
 1308 510 1308 510 1308 341 c 0,25,26
1149 341 m 0,39,40
 1149 569 1149 569 1039 569 c 0,41,42
 930 569 930 569 930 336 c 0,43,44
 930 114 930 114 1039 114 c 0,45,46
 1149 114 1149 114 1149 341 c 0,39,40
EndSplineSet
Validated: 1
EndChar

StartChar: ampersand
Encoding: 38 38 9
Width: 1291
GlyphClass: 2
Flags: W
LayerCount: 2
Fore
SplineSet
1032 762 m 1,0,-1
 1201 726 l 1,1,2
 1152 453 1152 453 1017 260 c 1,3,4
 1091 168 1091 168 1161 168 c 0,5,6
 1181 168 1181 168 1224 176 c 1,7,-1
 1224 0 l 1,8,9
 1161 -18 1161 -18 1116 -18 c 0,10,11
 988 -18 988 -18 881 116 c 1,12,13
 724 -25 724 -25 532 -25 c 0,14,15
 333 -25 333 -25 228 92 c 0,16,17
 121 209 121 209 121 377 c 0,18,19
 121 643 121 643 418 781 c 1,20,21
 299 966 299 966 299 1095 c 0,22,23
 299 1212 299 1212 388 1301 c 0,24,25
 479 1390 479 1390 621 1390 c 0,26,27
 765 1390 765 1390 846 1306 c 0,28,29
 928 1221 928 1221 928 1094 c 0,30,31
 928 878 928 878 679 739 c 1,32,-1
 912 403 l 1,33,34
 992 528 992 528 1032 762 c 1,0,-1
589 863 m 1,35,36
 748 954 748 954 748 1096 c 0,37,38
 748 1158 748 1158 714 1198 c 0,39,40
 679 1237 679 1237 625 1237 c 0,41,42
 572 1237 572 1237 535 1200 c 128,-1,43
 498 1163 498 1163 498 1100 c 0,44,45
 498 1003 498 1003 589 863 c 1,35,36
506 654 m 1,46,47
 337 554 337 554 337 388 c 0,48,49
 337 282 337 282 398 213 c 0,50,51
 461 145 461 145 560 145 c 0,52,53
 689 145 689 145 783 251 c 1,54,-1
 506 654 l 1,46,47
EndSplineSet
Validated: 1
EndChar

StartChar: quotesingle
Encoding: 39 39 10
Width: 698
GlyphClass: 2
Flags: W
LayerCount: 2
Fore
SplineSet
244 1365 m 1,0,-1
 454 1365 l 1,1,-1
 422 805 l 1,2,-1
 277 805 l 1,3,-1
 244 1365 l 1,0,-1
EndSplineSet
Validated: 1
EndChar

StartChar: parenleft
Encoding: 40 40 11
Width: 523
GlyphClass: 2
Flags: W
LayerCount: 2
Fore
SplineSet
369 1365 m 1,0,-1
 535 1365 l 1,1,2
 301 978 301 978 301 512 c 0,3,4
 301 44 301 44 535 -342 c 1,5,-1
 369 -342 l 1,6,7
 93 56 93 56 93 512 c 0,8,9
 93 978 93 978 369 1365 c 1,0,-1
EndSplineSet
Validated: 1
EndChar

StartChar: parenright
Encoding: 41 41 12
Width: 523
GlyphClass: 2
Flags: W
LayerCount: 2
Fore
SplineSet
154 -342 m 1,0,-1
 -12 -342 l 1,1,2
 222 45 222 45 222 512 c 0,3,4
 222 978 222 978 -12 1365 c 1,5,-1
 154 1365 l 1,6,7
 430 977 430 977 430 512 c 128,-1,8
 430 47 430 47 154 -342 c 1,0,-1
EndSplineSet
Validated: 1
EndChar

StartChar: asterisk
Encoding: 42 42 13
Width: 1046
GlyphClass: 2
Flags: W
LayerCount: 2
Fore
SplineSet
448 1365 m 1,0,-1
 599 1365 l 1,1,-1
 576 1095 l 1,2,-1
 800 1245 l 1,3,-1
 871 1108 l 1,4,-1
 635 1002 l 1,5,-1
 871 897 l 1,6,-1
 800 761 l 1,7,-1
 576 910 l 1,8,-1
 599 640 l 1,9,-1
 448 640 l 1,10,-1
 470 910 l 1,11,-1
 247 761 l 1,12,-1
 176 897 l 1,13,-1
 412 1002 l 1,14,-1
 176 1108 l 1,15,-1
 247 1245 l 1,16,-1
 470 1095 l 1,17,-1
 448 1365 l 1,0,-1
EndSplineSet
Validated: 1
EndChar

StartChar: plus
Encoding: 43 43 14
Width: 1196
GlyphClass: 2
Flags: W
LayerCount: 2
Fore
SplineSet
513 237 m 1,0,-1
 513 639 l 1,1,-1
 114 639 l 1,2,-1
 114 807 l 1,3,-1
 513 807 l 1,4,-1
 513 1206 l 1,5,-1
 683 1206 l 1,6,-1
 683 807 l 1,7,-1
 1082 807 l 1,8,-1
 1082 639 l 1,9,-1
 683 639 l 1,10,-1
 683 237 l 1,11,-1
 513 237 l 1,0,-1
EndSplineSet
Validated: 1
EndChar

StartChar: comma
Encoding: 44 44 15
Width: 489
GlyphClass: 2
Flags: W
LayerCount: 2
Fore
SplineSet
140 258 m 1,0,-1
 368 258 l 1,1,-1
 368 12 l 1,2,-1
 219 -289 l 1,3,-1
 120 -289 l 1,4,-1
 245 0 l 1,5,-1
 140 0 l 1,6,-1
 140 258 l 1,0,-1
EndSplineSet
Validated: 1
EndChar

StartChar: hyphen
Encoding: 45 45 16
Width: 593
GlyphClass: 2
Flags: W
LayerCount: 2
Fore
SplineSet
80 596 m 1,0,-1
 512 596 l 1,1,-1
 512 429 l 1,2,-1
 80 429 l 1,3,-1
 80 596 l 1,0,-1
EndSplineSet
Validated: 1
EndChar

StartChar: period
Encoding: 46 46 17
Width: 489
GlyphClass: 2
Flags: W
LayerCount: 2
Fore
SplineSet
130 258 m 1,0,-1
 358 258 l 1,1,-1
 358 0 l 1,2,-1
 130 0 l 1,3,-1
 130 258 l 1,0,-1
EndSplineSet
Validated: 1
EndChar

StartChar: slash
Encoding: 47 47 18
Width: 977
GlyphClass: 2
Flags: W
LayerCount: 2
Fore
SplineSet
723 1365 m 1,0,-1
 879 1365 l 1,1,-1
 125 -342 l 1,2,-1
 -31 -342 l 1,3,-1
 723 1365 l 1,0,-1
EndSplineSet
Validated: 1
EndChar

StartChar: zero
Encoding: 48 48 19
Width: 529
GlyphClass: 2
Flags: W
LayerCount: 2
Fore
SplineSet
277 183 m 0,0,1
 276 128 276 128 212 128 c 0,2,3
 149 129 149 129 148 181 c 2,4,-1
 148 1305 l 1,5,6
 154 1358 154 1358 212 1357 c 0,7,8
 271 1355 271 1355 278 1304 c 0,9,10
 277 1295 277 1295 277 183 c 0,0,1
0 1271 m 2,11,-1
 0 219 l 2,12,13
 0 -2 0 -2 216 0 c 0,14,15
 431 0 431 0 430 223 c 2,16,-1
 430 1272 l 1,17,18
 426 1500 426 1500 208 1500 c 0,19,20
 1 1500 1 1500 0 1271 c 2,11,-1
272 81 m 1,21,-1
 351 81 l 1,22,-1
 150 1422 l 1,23,-1
 71 1422 l 1,24,-1
 272 81 l 1,21,-1
EndSplineSet
Validated: 37
EndChar

StartChar: one
Encoding: 49 49 20
Width: 494
GlyphClass: 2
Flags: W
LayerCount: 2
Fore
SplineSet
148 1500 m 1,0,-1
 313 1500 l 1,1,-1
 313 0 l 1,2,-1
 92 0 l 1,3,-1
 92 1223 l 1,4,-1
 0 1112 l 1,5,-1
 0 1336 l 1,6,-1
 148 1500 l 1,0,-1
EndSplineSet
Validated: 1
EndChar

StartChar: two
Encoding: 50 50 21
Width: 527
GlyphClass: 2
Flags: W
LayerCount: 2
Fore
SplineSet
0 1240 m 1,0,-1
 146 1240 l 1,1,-1
 147 1276 l 2,2,3
 147 1348 147 1348 179 1346 c 2,4,-1
 252 1346 l 2,5,6
 266 1347 266 1347 273.5 1339.5 c 128,-1,7
 281 1332 281 1332 281 1316 c 2,8,-1
 0 159 l 1,9,-1
 0 0 l 1,10,-1
 424 0 l 1,11,-1
 424 160 l 1,12,-1
 143 160 l 1,13,-1
 425 1339 l 1,14,15
 425 1384 425 1384 416 1439 c 0,16,17
 409 1494 409 1494 285 1500 c 1,18,-1
 106 1500 l 2,19,20
 0 1500 0 1500 0 1240 c 1,0,-1
EndSplineSet
Validated: 41
EndChar

StartChar: three
Encoding: 51 51 22
Width: 527
GlyphClass: 2
Flags: W
LayerCount: 2
Fore
SplineSet
0 1261 m 1,0,-1
 146 1260 l 1,1,-1
 147 1306 l 2,2,3
 147 1358 147 1358 179 1356 c 2,4,-1
 252 1356 l 2,5,6
 266 1357 266 1357 273.5 1349.5 c 128,-1,7
 281 1342 281 1342 281 1326 c 2,8,-1
 280 976 l 2,9,10
 282 934 282 934 146 828 c 1,11,-1
 146 745 l 1,12,13
 280 671 280 671 272 617 c 1,14,-1
 272 173 l 2,15,16
 272 153 272 153 250 153 c 2,17,-1
 168 153 l 2,18,19
 147 153 147 153 145 173 c 2,20,-1
 145 289 l 1,21,-1
 -1 290 l 1,22,-1
 -1 154 l 2,23,24
 0 77 0 77 38.5 38 c 128,-1,25
 77 -1 77 -1 153 0 c 2,26,-1
 272 0 l 2,27,28
 428 0 428 0 428 153 c 2,29,-1
 428 631 l 2,30,31
 427 748 427 748 314 795 c 1,32,33
 425 834 425 834 425 963 c 2,34,-1
 425 1339 l 2,35,36
 425 1384 425 1384 416 1439 c 0,37,38
 409 1494 409 1494 285 1500 c 1,39,-1
 106 1500 l 2,40,41
 0 1500 0 1500 0 1261 c 1,0,-1
EndSplineSet
Validated: 41
EndChar

StartChar: four
Encoding: 52 52 23
Width: 700
GlyphClass: 2
Flags: W
LayerCount: 2
Fore
SplineSet
393 1500 m 1,0,-1
 600 1500 l 1,1,-1
 600 0 l 1,2,-1
 424 0 l 1,3,-1
 424 352 l 1,4,-1
 0 352 l 1,5,-1
 0 501 l 1,6,-1
 393 1500 l 1,0,-1
443 500 m 1,7,-1
 443 1284 l 1,8,-1
 192 500 l 1,9,-1
 443 500 l 1,7,-1
EndSplineSet
Validated: 1
EndChar

StartChar: five
Encoding: 53 53 24
Width: 527
GlyphClass: 2
Flags: W
LayerCount: 2
Fore
SplineSet
0 239 m 1,0,-1
 146 240 l 1,1,-1
 147 174 l 2,2,3
 147 122 147 122 179 124 c 2,4,-1
 252 124 l 2,5,6
 266 123 266 123 273.5 130.5 c 128,-1,7
 281 138 281 138 281 154 c 2,8,-1
 280 644 l 2,9,10
 282 684 282 684 232 683 c 2,11,-1
 136 682 l 2,12,13
 0 679 0 679 0 771 c 2,14,-1
 0 1500 l 1,15,-1
 424 1500 l 1,16,-1
 424 1340 l 1,17,-1
 146 1339 l 1,18,-1
 146 824 l 1,19,-1
 314 825 l 1,20,21
 425 786 425 786 425 657 c 2,22,-1
 425 161 l 2,23,24
 425 117 425 117 416 61 c 0,25,26
 409 6 409 6 285 0 c 1,27,-1
 106 0 l 2,28,29
 0 0 0 0 0 239 c 1,0,-1
EndSplineSet
Validated: 33
EndChar

StartChar: six
Encoding: 54 54 25
Width: 527
GlyphClass: 2
Flags: W
LayerCount: 2
Fore
SplineSet
0 124 m 2,0,-1
 0 1300 l 2,1,2
 -1 1400 -1 1400 52 1450 c 128,-1,3
 105 1500 105 1500 211 1500 c 2,4,-1
 424 1500 l 1,5,-1
 424 1340 l 1,6,-1
 215 1340 l 2,7,8
 146 1340 146 1340 146 1297 c 2,9,-1
 146 814 l 1,10,-1
 314 815 l 1,11,12
 425 776 425 776 425 657 c 2,13,-1
 425 116 l 2,14,15
 427 0 427 0 319 0 c 2,16,-1
 126 0 l 2,17,18
 0 0 0 0 0 124 c 2,0,-1
295 588 m 0,19,20
 292 679 292 679 230 680 c 0,21,22
 169 682 169 682 145 680 c 1,23,-1
 145 180 l 2,24,25
 145 120 145 120 218 120 c 0,26,27
 292 120 292 120 295 176 c 0,28,29
 297 202 297 202 295 588 c 0,19,20
EndSplineSet
Validated: 33
EndChar

StartChar: seven
Encoding: 55 55 26
Width: 700
GlyphClass: 2
Flags: W
LayerCount: 2
Fore
SplineSet
4 1500 m 1,0,-1
 600 1500 l 1,1,-1
 600 1350 l 1,2,-1
 288 0 l 1,3,-1
 148 0 l 1,4,-1
 451 1345 l 1,5,-1
 5 1345 l 1,6,-1
 4 1500 l 1,0,-1
EndSplineSet
Validated: 1
EndChar

StartChar: eight
Encoding: 56 56 27
Width: 529
GlyphClass: 2
Flags: W
LayerCount: 2
Fore
SplineSet
277 828 m 0,0,1
 275 802 275 802 212 802 c 128,-1,2
 149 802 149 802 148 827 c 2,3,-1
 148 1365 l 1,4,5
 154 1390 154 1390 212 1390 c 0,6,7
 271 1388 271 1388 278 1364 c 0,8,9
 277 1360 277 1360 277 828 c 0,0,1
0 1363 m 2,10,-1
 0 820 l 2,11,12
 0 706 0 706 76 705 c 1,13,14
 1 701 1 701 -1 600 c 2,15,-1
 -1 94 l 2,16,17
 0 0 0 0 215 1 c 0,18,19
 428 0 428 0 430 93 c 2,20,-1
 429 599 l 2,21,22
 430 700 430 700 353 705 c 1,23,24
 430 707 430 707 430 822 c 2,25,-1
 430 1363 l 1,26,27
 426 1481 426 1481 208 1481 c 0,28,29
 1 1481 1 1481 0 1363 c 2,10,-1
277 117 m 0,30,31
 276 92 276 92 212 92 c 0,32,33
 150 92 150 92 148 116 c 2,34,-1
 148 638 l 1,35,36
 154 662 154 662 212 662 c 0,37,38
 271 660 271 660 278 637 c 0,39,40
 277 633 277 633 277 117 c 0,30,31
EndSplineSet
Validated: 41
EndChar

StartChar: nine
Encoding: 57 57 28
Width: 527
GlyphClass: 2
Flags: W
LayerCount: 2
Fore
SplineSet
424 1376 m 2,0,-1
 424 200 l 2,1,2
 425 100 425 100 372 50 c 128,-1,3
 319 0 319 0 213 0 c 2,4,-1
 0 0 l 1,5,-1
 0 160 l 1,6,-1
 209 160 l 2,7,8
 278 160 278 160 278 203 c 2,9,-1
 278 686 l 1,10,-1
 110 685 l 1,11,12
 -1 724 -1 724 -1 843 c 2,13,-1
 -1 1384 l 2,14,15
 -3 1500 -3 1500 105 1500 c 2,16,-1
 298 1500 l 2,17,18
 424 1500 424 1500 424 1376 c 2,0,-1
129 912 m 0,19,20
 132 821 132 821 194 820 c 0,21,22
 255 818 255 818 279 820 c 1,23,-1
 279 1320 l 2,24,25
 279 1380 279 1380 206 1380 c 0,26,27
 132 1380 132 1380 129 1324 c 0,28,29
 127 1298 127 1298 129 912 c 0,19,20
EndSplineSet
Validated: 33
EndChar

StartChar: colon
Encoding: 58 58 29
Width: 488
GlyphClass: 2
Flags: W
LayerCount: 2
Fore
SplineSet
130 1010 m 1,0,-1
 358 1010 l 1,1,-1
 358 752 l 1,2,-1
 130 752 l 1,3,-1
 130 1010 l 1,0,-1
130 258 m 1,4,-1
 358 258 l 1,5,-1
 358 0 l 1,6,-1
 130 0 l 1,7,-1
 130 258 l 1,4,-1
EndSplineSet
Validated: 1
EndChar

StartChar: semicolon
Encoding: 59 59 30
Width: 489
GlyphClass: 2
Flags: W
LayerCount: 2
Fore
SplineSet
140 1010 m 1,0,-1
 368 1010 l 1,1,-1
 368 752 l 1,2,-1
 140 752 l 1,3,-1
 140 1010 l 1,0,-1
140 258 m 1,4,-1
 368 258 l 1,5,-1
 368 12 l 1,6,-1
 219 -289 l 1,7,-1
 120 -289 l 1,8,-1
 245 0 l 1,9,-1
 140 0 l 1,10,-1
 140 258 l 1,4,-1
EndSplineSet
Validated: 1
EndChar

StartChar: less
Encoding: 60 60 31
Width: 1046
GlyphClass: 2
Flags: W
LayerCount: 2
Fore
SplineSet
946 1221 m 1,0,-1
 946 991 l 1,1,-1
 305 681 l 1,2,-1
 945 371 l 1,3,-1
 946 142 l 1,4,-1
 59 584 l 1,5,-1
 59 780 l 1,6,-1
 946 1221 l 1,0,-1
EndSplineSet
Validated: 1
EndChar

StartChar: equal
Encoding: 61 61 32
Width: 1046
GlyphClass: 2
Flags: W
LayerCount: 2
Fore
SplineSet
941 740 m 1,0,-1
 104 740 l 1,1,-1
 104 906 l 1,2,-1
 941 906 l 1,3,-1
 941 740 l 1,0,-1
941 459 m 1,4,-1
 104 459 l 1,5,-1
 104 625 l 1,6,-1
 941 625 l 1,7,-1
 941 459 l 1,4,-1
EndSplineSet
Validated: 1
EndChar

StartChar: greater
Encoding: 62 62 33
Width: 1046
GlyphClass: 2
Flags: W
LayerCount: 2
Fore
SplineSet
100 142 m 1,0,-1
 100 372 l 1,1,-1
 742 682 l 1,2,-1
 101 993 l 1,3,-1
 100 1221 l 1,4,-1
 987 779 l 1,5,-1
 987 583 l 1,6,-1
 100 142 l 1,0,-1
EndSplineSet
Validated: 1
EndChar

StartChar: question
Encoding: 63 63 34
Width: 1012
GlyphClass: 2
Flags: W
LayerCount: 2
Fore
SplineSet
230 999 m 1,0,-1
 83 999 l 1,1,2
 108 1497 108 1497 403 1497 c 0,3,4
 544 1497 544 1497 628 1387 c 0,5,6
 710 1276 710 1276 710 1091 c 0,7,8
 710 1001 710 1001 682 906 c 0,9,10
 651 813 651 813 549 697 c 0,11,12
 478 616 478 616 462 571 c 0,13,14
 447 526 447 526 447 450 c 2,15,-1
 448 392 l 1,16,-1
 299 392 l 1,17,-1
 300 437 l 2,18,19
 300 596 300 596 318 658 c 256,20,21
 336 720 336 720 408 805 c 0,22,23
 477 886 477 886 505 946 c 0,24,25
 532 1004 532 1004 532 1095 c 0,26,27
 532 1199 532 1199 494 1252 c 0,28,29
 457 1304 457 1304 393 1304 c 0,30,31
 244 1304 244 1304 230 999 c 1,0,-1
286 225 m 1,32,-1
 461 225 l 1,33,-1
 461 40 l 1,34,-1
 286 40 l 1,35,-1
 286 225 l 1,32,-1
EndSplineSet
Validated: 1
EndChar

StartChar: at
Encoding: 64 64 35
Width: 1221
GlyphClass: 2
Flags: W
LayerCount: 2
Fore
SplineSet
796 1038 m 1,0,-1
 916 1038 l 1,1,-1
 857 615 l 2,2,3
 844 524 844 524 844 480 c 0,4,5
 844 411 844 411 894 411 c 0,6,7
 967 411 967 411 1018 511 c 0,8,9
 1069 612 1069 612 1069 770 c 0,10,11
 1069 1013 1069 1013 954 1148 c 0,12,13
 837 1281 837 1281 646 1281 c 0,14,15
 430 1281 430 1281 297 1108 c 0,16,17
 163 936 163 936 163 673 c 0,18,19
 163 415 163 415 300 251 c 0,20,21
 436 88 436 88 671 88 c 0,22,23
 863 88 863 88 1036 195 c 1,24,-1
 1082 85 l 1,25,26
 874 -33 874 -33 664 -33 c 0,27,28
 374 -33 374 -33 194 155 c 0,29,30
 15 343 15 343 15 668 c 0,31,32
 15 991 15 991 190 1196 c 128,-1,33
 365 1401 365 1401 649 1401 c 0,34,35
 902 1401 902 1401 1054 1238 c 0,36,37
 1207 1073 1207 1073 1207 787 c 0,38,39
 1207 560 1207 560 1110 420 c 0,40,41
 1014 279 1014 279 875 279 c 0,42,43
 752 279 752 279 727 396 c 1,44,45
 668 274 668 274 549 274 c 0,46,47
 451 274 451 274 388 363 c 0,48,49
 327 453 327 453 327 605 c 0,50,51
 327 797 327 797 410 925 c 0,52,53
 494 1053 494 1053 619 1053 c 0,54,55
 734 1053 734 1053 781 927 c 1,56,-1
 796 1038 l 1,0,-1
720 730 m 0,57,58
 720 903 720 903 627 903 c 0,59,60
 566 903 566 903 525 820 c 0,61,62
 485 739 485 739 485 608 c 0,63,64
 485 523 485 523 511 473 c 0,65,66
 536 424 536 424 580 424 c 0,67,68
 648 424 648 424 684 516 c 128,-1,69
 720 608 720 608 720 730 c 0,57,58
EndSplineSet
Validated: 1
EndChar

StartChar: A
Encoding: 65 65 36
Width: 750
GlyphClass: 2
Flags: W
LayerCount: 2
Fore
SplineSet
0 0 m 1,0,-1
 159 0 l 1,1,-1
 231 426 l 1,2,-1
 431 426 l 1,3,-1
 492 -1 l 1,4,-1
 650 0 l 1,5,-1
 436 1500 l 1,6,-1
 222 1500 l 1,7,-1
 0 0 l 1,0,-1
348 1213 m 1,8,-1
 419 533 l 1,9,-1
 240 533 l 1,10,-1
 312 1214 l 1,11,-1
 348 1213 l 1,8,-1
EndSplineSet
Validated: 9
EndChar

StartChar: B
Encoding: 66 66 37
Width: 527
GlyphClass: 2
Flags: W
LayerCount: 2
Fore
SplineSet
1 1501 m 1,0,1
 1 1281 1 1281 0 1219 c 2,2,-1
 0 0 l 1,3,4
 268 2 268 2 297 0 c 1,5,6
 382 6 382 6 404 70 c 0,7,8
 427 134 427 134 427 263 c 2,9,-1
 428 676 l 2,10,11
 428 745 428 745 366 765 c 1,12,13
 427 784 427 784 427 863 c 2,14,-1
 427 1339 l 2,15,16
 427 1383 427 1383 404 1432 c 0,17,18
 380 1481 380 1481 257 1500 c 1,19,20
 143 1500 143 1500 1 1501 c 1,0,1
277 202 m 0,21,22
 274 111 274 111 222 110 c 0,23,24
 171 108 171 108 147 110 c 1,25,-1
 147 670 l 1,26,-1
 212 670 l 2,27,28
 274 670 274 670 277 614 c 0,29,30
 279 588 279 588 277 202 c 0,21,22
277 912 m 0,31,32
 274 821 274 821 222 820 c 0,33,34
 171 818 171 818 147 820 c 1,35,-1
 147 1380 l 1,36,-1
 212 1380 l 2,37,38
 274 1380 274 1380 277 1324 c 0,39,40
 279 1298 279 1298 277 912 c 0,31,32
EndSplineSet
Validated: 41
EndChar

StartChar: C
Encoding: 67 67 38
Width: 528
GlyphClass: 2
Flags: W
LayerCount: 2
Fore
SplineSet
0 1335 m 1,0,-1
 0 1222 l 1,1,-1
 0 169 l 1,2,3
 17 58 17 58 131 16 c 0,4,5
 247 -25 247 -25 339 38 c 0,6,7
 432 102 432 102 429 223 c 2,8,-1
 429 435 l 1,9,-1
 276 435 l 1,10,-1
 277 207 l 2,11,12
 275 142 275 142 214 142 c 0,13,14
 152 142 152 142 147 205 c 1,15,-1
 147 1299 l 1,16,17
 154 1359 154 1359 214 1361 c 0,18,19
 273 1363 273 1363 276 1312 c 0,20,21
 278 1285 278 1285 276 1078 c 1,22,-1
 429 1078 l 1,23,-1
 429 1343 l 2,24,25
 431 1389 431 1389 404 1430 c 1,26,27
 380 1474 380 1474 257 1500 c 1,28,29
 16 1509 16 1509 0 1335 c 1,0,-1
EndSplineSet
Validated: 41
EndChar

StartChar: D
Encoding: 68 68 39
Width: 529
GlyphClass: 2
Flags: W
LayerCount: 2
Fore
SplineSet
282 1069 m 2,0,-1
 283 448 l 1,1,-1
 282 212 l 2,2,3
 283 180 283 180 269.5 163.5 c 128,-1,4
 256 147 256 147 228 148 c 0,5,6
 173 149 173 149 148 148 c 1,7,-1
 148 1373 l 1,8,-1
 212 1373 l 2,9,10
 273 1373 273 1373 282 1312 c 0,11,12
 284 1286 284 1286 282 1069 c 2,0,-1
1 1501 m 1,13,14
 1 1282 1 1282 0 1220 c 2,15,-1
 0 0 l 1,16,-1
 297 0 l 2,17,18
 380 0 380 0 406 52 c 0,19,20
 431 104 431 104 429 225 c 2,21,-1
 429 435 l 1,22,-1
 430 1054 l 1,23,-1
 430 1339 l 2,24,25
 430 1385 430 1385 405 1442 c 0,26,27
 380 1500 380 1500 257 1500 c 0,28,29
 143 1500 143 1500 1 1501 c 1,13,14
EndSplineSet
Validated: 41
EndChar

StartChar: E
Encoding: 69 69 40
Width: 433
GlyphClass: 2
Flags: W
LayerCount: 2
Fore
SplineSet
0 0 m 1,0,-1
 333 0 l 1,1,-1
 333 143 l 1,2,-1
 143 143 l 1,3,-1
 143 714 l 1,4,-1
 333 714 l 1,5,-1
 333 857 l 1,6,-1
 143 857 l 1,7,-1
 143 1357 l 1,8,-1
 333 1357 l 1,9,-1
 333 1500 l 1,10,-1
 0 1500 l 1,11,-1
 0 0 l 1,0,-1
EndSplineSet
Validated: 9
EndChar

StartChar: F
Encoding: 70 70 41
Width: 433
GlyphClass: 2
Flags: W
LayerCount: 2
Fore
SplineSet
0 0 m 1,0,-1
 143 0 l 1,1,-1
 143 714 l 1,2,-1
 333 714 l 1,3,-1
 333 857 l 1,4,-1
 143 857 l 1,5,-1
 143 1357 l 1,6,-1
 333 1357 l 1,7,-1
 333 1500 l 1,8,-1
 0 1500 l 1,9,-1
 0 0 l 1,0,-1
EndSplineSet
Validated: 9
EndChar

StartChar: G
Encoding: 71 71 42
Width: 514
GlyphClass: 2
Flags: W
LayerCount: 2
Fore
SplineSet
256 611 m 1024,0,-1
429 745 m 1,1,-1
 429 223 l 2,2,3
 432 103 432 103 349 38 c 0,4,5
 267 -25 267 -25 141 16 c 0,6,7
 16 58 16 58 0 169 c 1,8,-1
 0 1222 l 1,9,-1
 0 1335 l 2,10,11
 0 1511 0 1511 257 1500 c 1,12,13
 378 1475 378 1475 404 1430 c 0,14,15
 429 1390 429 1390 429 1343 c 2,16,-1
 429 1176 l 1,17,-1
 276 1176 l 1,18,19
 277 1285 277 1285 276 1312 c 0,20,21
 274 1363 274 1363 214 1361 c 128,-1,22
 154 1359 154 1359 147 1299 c 1,23,-1
 147 205 l 1,24,25
 152 142 152 142 208 142 c 0,26,27
 265 142 265 142 277 207 c 1,28,-1
 277 634 l 1,29,-1
 227 634 l 1,30,-1
 227 745 l 1,31,-1
 429 745 l 1,1,-1
429 745 m 1,32,-1
 429 223 l 2,33,34
 432 103 432 103 349 38 c 0,35,36
 267 -25 267 -25 141 16 c 0,37,38
 16 58 16 58 0 169 c 1,39,-1
 0 1222 l 1,40,-1
 0 1335 l 2,41,42
 0 1511 0 1511 257 1500 c 1,43,44
 378 1475 378 1475 404 1430 c 0,45,46
 429 1390 429 1390 429 1343 c 2,47,-1
 429 1176 l 1,48,-1
 276 1176 l 1,49,50
 277 1285 277 1285 276 1312 c 0,51,52
 274 1363 274 1363 214 1361 c 128,-1,53
 154 1359 154 1359 147 1299 c 1,54,-1
 147 205 l 1,55,56
 152 142 152 142 208 145 c 0,57,58
 265 148 265 148 277 213 c 1,59,-1
 277 640 l 1,60,-1
 227 634 l 1,61,-1
 227 745 l 1,62,-1
 429 745 l 1,32,-1
EndSplineSet
Validated: 37
EndChar

StartChar: H
Encoding: 72 72 43
Width: 581
GlyphClass: 2
Flags: W
LayerCount: 2
Fore
SplineSet
0 0 m 1,0,-1
 130 0 l 1,1,-1
 130 722 l 1,2,-1
 352 722 l 1,3,-1
 352 0 l 1,4,-1
 481 0 l 1,5,-1
 481 1500 l 1,6,-1
 352 1500 l 1,7,-1
 352 866 l 1,8,-1
 130 865 l 1,9,-1
 128 1500 l 1,10,-1
 0 1500 l 1,11,-1
 0 0 l 1,0,-1
EndSplineSet
Validated: 9
EndChar

StartChar: I
Encoding: 73 73 44
Width: 230
GlyphClass: 2
Flags: W
LayerCount: 2
Fore
SplineSet
0 0 m 1,0,-1
 130 0 l 1,1,-1
 130 1500 l 1,2,-1
 0 1500 l 1,3,-1
 0 0 l 1,0,-1
EndSplineSet
Validated: 9
EndChar

StartChar: J
Encoding: 74 74 45
Width: 528
GlyphClass: 2
Flags: W
LayerCount: 2
Fore
SplineSet
428 1501 m 1,0,-1
 428 169 l 1,1,2
 411 58 411 58 297 16 c 0,3,4
 181 -25 181 -25 89 38 c 0,5,6
 -4 102 -4 102 -1 223 c 2,7,-1
 -1 435 l 1,8,-1
 152 435 l 1,9,-1
 151 207 l 2,10,11
 153 142 153 142 214 142 c 0,12,13
 276 142 276 142 281 205 c 1,14,-1
 281 1500 l 1,15,-1
 428 1501 l 1,0,-1
EndSplineSet
Validated: 33
EndChar

StartChar: K
Encoding: 75 75 46
Width: 644
GlyphClass: 2
Flags: W
LayerCount: 2
Fore
SplineSet
144 945 m 1,0,-1
 144 1500 l 1,1,-1
 0 1500 l 1,2,-1
 0 0 l 1,3,-1
 144 0 l 1,4,-1
 144 630 l 1,5,-1
 361 0 l 1,6,-1
 545 0 l 1,7,-1
 264 847 l 1,8,-1
 541 1501 l 1,9,-1
 385 1500 l 1,10,-1
 144 945 l 1,0,-1
EndSplineSet
Validated: 9
EndChar

StartChar: L
Encoding: 76 76 47
Width: 10980
GlyphClass: 2
Flags: W
LayerCount: 2
Fore
SplineSet
461 1014 m 1,0,-1
 386 1014 l 1,1,-1
 328 1183 l 1,2,-1
 113 1183 l 1,3,-1
 61 1014 l 1,4,-1
 0 1014 l 1,5,-1
 189 1594 l 1,6,-1
 271 1594 l 1,7,-1
 461 1014 l 1,0,-1
301 1238 m 1,8,-1
 211 1517 l 1,9,-1
 121 1238 l 1,10,-1
 301 1238 l 1,8,-1
8265 1012 m 1,11,-1
 8198 1012 l 1,12,-1
 8198 1593 l 1,13,-1
 8265 1593 l 1,14,-1
 8265 1012 l 1,11,-1
1084 1015 m 128,-1,16
 996 1015 996 1015 946 1080 c 0,17,18
 896 1147 896 1147 896 1243 c 0,19,20
 896 1345 896 1345 952 1406 c 0,21,22
 1007 1468 1007 1468 1091 1468 c 0,23,24
 1179 1468 1179 1468 1231 1404 c 0,25,26
 1282 1338 1282 1338 1282 1242 c 0,27,28
 1282 1142 1282 1142 1227 1078 c 0,29,15
 1172 1015 1172 1015 1084 1015 c 128,-1,16
1089 1070 m 0,30,31
 1141 1070 1141 1070 1174 1112 c 0,32,33
 1209 1153 1209 1153 1209 1243 c 128,-1,34
 1209 1333 1209 1333 1173 1372 c 0,35,36
 1138 1413 1138 1413 1088 1413 c 0,37,38
 1040 1413 1040 1413 1004 1372 c 0,39,40
 970 1330 970 1330 970 1243 c 0,41,42
 970 1152 970 1152 1004 1110 c 0,43,44
 1040 1070 1040 1070 1089 1070 c 0,30,31
1665 1014 m 1,45,-1
 1602 1014 l 1,46,-1
 1602 1290 l 2,47,48
 1602 1348 1602 1348 1576 1374 c 0,49,50
 1550 1398 1550 1398 1513 1398 c 0,51,52
 1461 1398 1461 1398 1428 1357 c 0,53,54
 1393 1318 1393 1318 1393 1249 c 2,55,-1
 1393 1014 l 1,56,-1
 1326 1014 l 1,57,-1
 1326 1443 l 1,58,-1
 1388 1443 l 1,59,-1
 1388 1364 l 1,60,61
 1440 1455 1440 1455 1524 1455 c 0,62,63
 1572 1455 1572 1455 1606 1430 c 0,64,65
 1639 1405 1639 1405 1652 1374 c 0,66,67
 1665 1344 1665 1344 1665 1262 c 2,68,-1
 1665 1014 l 1,45,-1
2696 1071 m 1,69,-1
 2696 1018 l 1,70,71
 2656 1013 2656 1013 2634 1013 c 0,72,73
 2510 1013 2510 1013 2510 1143 c 2,74,-1
 2510 1402 l 1,75,-1
 2433 1402 l 1,76,-1
 2433 1454 l 1,77,-1
 2510 1454 l 1,78,-1
 2513 1562 l 1,79,-1
 2575 1568 l 1,80,-1
 2575 1454 l 1,81,-1
 2671 1454 l 1,82,-1
 2671 1402 l 1,83,-1
 2575 1402 l 1,84,-1
 2575 1132 l 2,85,86
 2575 1066 2575 1066 2644 1066 c 0,87,88
 2664 1066 2664 1066 2696 1071 c 1,69,-1
2812 1594 m 1,89,-1
 2812 1520 l 1,90,-1
 2740 1520 l 1,91,-1
 2740 1594 l 1,92,-1
 2812 1594 l 1,89,-1
2810 1443 m 1,93,-1
 2810 1014 l 1,94,-1
 2743 1014 l 1,95,-1
 2743 1443 l 1,96,-1
 2810 1443 l 1,93,-1
3445 1014 m 1,97,-1
 3380 1014 l 1,98,-1
 3380 1281 l 2,99,100
 3380 1322 3380 1322 3374 1342 c 0,101,102
 3368 1364 3368 1364 3346 1380 c 0,103,104
 3324 1398 3324 1398 3296 1398 c 0,105,106
 3259 1398 3259 1398 3222 1363 c 0,107,108
 3187 1328 3187 1328 3187 1256 c 2,109,-1
 3187 1014 l 1,110,-1
 3122 1014 l 1,111,-1
 3122 1297 l 2,112,113
 3122 1354 3122 1354 3095 1376 c 0,114,115
 3068 1400 3068 1400 3038 1400 c 0,116,117
 2997 1400 2997 1400 2964 1364 c 0,118,119
 2933 1325 2933 1325 2933 1271 c 2,120,-1
 2933 1014 l 1,121,-1
 2869 1014 l 1,122,-1
 2869 1443 l 1,123,-1
 2926 1443 l 1,124,-1
 2926 1361 l 1,125,126
 2974 1455 2974 1455 3059 1455 c 0,127,128
 3105 1455 3105 1455 3138 1425 c 0,129,130
 3170 1394 3170 1394 3179 1352 c 1,131,132
 3222 1455 3222 1455 3315 1455 c 0,133,134
 3360 1455 3360 1455 3392 1430 c 0,135,136
 3425 1405 3425 1405 3435 1372 c 0,137,138
 3445 1342 3445 1342 3445 1281 c 2,139,-1
 3445 1014 l 1,97,-1
3831 1142 m 1,140,-1
 3893 1129 l 1,141,142
 3877 1074 3877 1074 3827 1038 c 0,143,144
 3778 1002 3778 1002 3711 1002 c 0,145,146
 3624 1002 3624 1002 3568 1064 c 0,147,148
 3514 1126 3514 1126 3514 1226 c 0,149,150
 3514 1328 3514 1328 3570 1392 c 0,151,152
 3627 1455 3627 1455 3713 1455 c 0,153,154
 3797 1455 3797 1455 3848 1397 c 0,155,156
 3900 1338 3900 1338 3901 1222 c 1,157,-1
 3588 1222 l 1,158,159
 3588 1126 3588 1126 3629 1091 c 0,160,161
 3669 1057 3669 1057 3716 1057 c 0,162,163
 3798 1057 3798 1057 3831 1142 c 1,140,-1
3828 1272 m 1,164,165
 3826 1309 3826 1309 3816 1336 c 0,166,167
 3806 1366 3806 1366 3778 1384 c 0,168,169
 3754 1404 3754 1404 3715 1404 c 0,170,171
 3666 1404 3666 1404 3630 1368 c 0,172,173
 3595 1332 3595 1332 3591 1272 c 1,174,-1
 3828 1272 l 1,164,165
4562 1014 m 1,175,-1
 4496 1014 l 1,176,177
 4493 1027 4493 1027 4488 1091 c 1,178,179
 4444 1002 4444 1002 4337 1002 c 0,180,181
 4266 1002 4266 1002 4226 1040 c 0,182,183
 4188 1080 4188 1080 4188 1132 c 0,184,185
 4188 1197 4188 1197 4243 1239 c 128,-1,186
 4298 1281 4298 1281 4431 1281 c 0,187,188
 4436 1281 4436 1281 4488 1279 c 1,189,190
 4488 1328 4488 1328 4480 1354 c 0,191,192
 4472 1375 4472 1375 4446 1390 c 0,193,194
 4420 1403 4420 1403 4380 1403 c 0,195,196
 4278 1403 4278 1403 4261 1326 c 1,197,-1
 4200 1336 l 1,198,199
 4223 1455 4223 1455 4389 1455 c 0,200,201
 4477 1455 4477 1455 4516 1416 c 0,202,203
 4553 1374 4553 1374 4553 1279 c 2,204,-1
 4553 1097 l 2,205,206
 4553 1052 4553 1052 4562 1014 c 1,175,-1
4488 1228 m 1,207,208
 4447 1231 4447 1231 4426 1231 c 0,209,210
 4347 1231 4347 1231 4303 1205 c 128,-1,211
 4259 1179 4259 1179 4259 1129 c 0,212,213
 4259 1099 4259 1099 4282 1076 c 0,214,215
 4305 1054 4305 1054 4351 1054 c 0,216,217
 4412 1054 4412 1054 4450 1098 c 0,218,219
 4489 1140 4489 1140 4489 1200 c 0,220,221
 4489 1217 4489 1217 4488 1228 c 1,207,208
1919 1159 m 128,-1,223
 1961 1159 1961 1159 1989 1185 c 0,224,225
 2016 1210 2016 1210 2016 1253 c 0,226,227
 2016 1295 2016 1295 1988 1322 c 128,-1,228
 1960 1349 1960 1349 1920 1349 c 0,229,230
 1881 1349 1881 1349 1853 1324 c 0,231,232
 1824 1298 1824 1298 1824 1252 c 0,233,234
 1824 1212 1824 1212 1850 1184 c 0,235,222
 1877 1159 1877 1159 1919 1159 c 128,-1,223
1839 977 m 1,236,237
 1793 958 1793 958 1793 918 c 0,238,239
 1793 885 1793 885 1832 867 c 0,240,241
 1870 849 1870 849 1929 849 c 0,242,243
 1985 849 1985 849 2030 864 c 0,244,245
 2076 880 2076 880 2076 917 c 0,246,247
 2076 937 2076 937 2062 950 c 0,248,249
 2051 963 2051 963 2026 966 c 0,250,251
 2008 969 2008 969 1943 971 c 0,252,253
 1874 972 1874 972 1839 977 c 1,236,237
2124 1457 m 1,254,-1
 2124 1403 l 1,255,256
 2077 1403 2077 1403 2062 1392 c 0,257,258
 2047 1383 2047 1383 2042 1355 c 1,259,260
 2083 1306 2083 1306 2083 1251 c 0,261,262
 2083 1192 2083 1192 2038 1150 c 128,-1,263
 1993 1108 1993 1108 1917 1108 c 0,264,265
 1904 1108 1904 1108 1888 1110 c 0,266,267
 1863 1115 1863 1115 1859 1115 c 0,268,269
 1848 1115 1848 1115 1831 1104 c 0,270,271
 1815 1094 1815 1094 1815 1075 c 0,272,273
 1815 1048 1815 1048 1838 1042 c 0,274,275
 1861 1034 1861 1034 1948 1032 c 0,276,277
 2018 1031 2018 1031 2057 1022 c 0,278,279
 2092 1014 2092 1014 2116 987 c 0,280,281
 2141 961 2141 961 2141 921 c 0,282,283
 2141 798 2141 798 1925 798 c 0,284,285
 1822 798 1822 798 1775 828 c 0,286,287
 1728 860 1728 860 1728 911 c 0,288,289
 1728 973 1728 973 1793 997 c 1,290,291
 1751 1024 1751 1024 1751 1066 c 0,292,293
 1751 1116 1751 1116 1811 1142 c 1,294,295
 1755 1187 1755 1187 1755 1256 c 0,296,297
 1755 1321 1755 1321 1802 1360 c 0,298,299
 1849 1401 1849 1401 1919 1401 c 0,300,301
 1968 1401 1968 1401 2007 1383 c 1,302,303
 2013 1424 2013 1424 2036 1441 c 0,304,305
 2059 1457 2059 1457 2107 1457 c 2,306,-1
 2124 1457 l 1,254,-1
4784 1162 m 0,307,308
 4826 1162 4826 1162 4854 1188 c 0,309,310
 4880 1214 4880 1214 4880 1256 c 128,-1,311
 4880 1298 4880 1298 4852 1325 c 0,312,313
 4825 1352 4825 1352 4785 1352 c 0,314,315
 4746 1352 4746 1352 4718 1327 c 0,316,317
 4688 1302 4688 1302 4688 1255 c 0,318,319
 4688 1212 4688 1212 4714 1188 c 0,320,321
 4740 1162 4740 1162 4784 1162 c 0,307,308
4704 980 m 1,322,323
 4657 960 4657 960 4657 921 c 0,324,325
 4657 888 4657 888 4696 870 c 0,326,327
 4734 852 4734 852 4794 852 c 0,328,329
 4850 852 4850 852 4895 868 c 0,330,331
 4941 883 4941 883 4941 920 c 0,332,333
 4941 938 4941 938 4928 953 c 0,334,335
 4913 966 4913 966 4890 969 c 0,336,337
 4863 973 4863 973 4808 974 c 0,338,339
 4739 975 4739 975 4704 980 c 1,322,323
4988 1459 m 1,340,-1
 4988 1406 l 1,341,342
 4944 1406 4944 1406 4926 1396 c 0,343,344
 4910 1383 4910 1383 4906 1357 c 1,345,346
 4947 1310 4947 1310 4947 1254 c 0,347,348
 4947 1195 4947 1195 4902 1153 c 0,349,350
 4858 1111 4858 1111 4782 1111 c 0,351,352
 4769 1111 4769 1111 4753 1113 c 0,353,354
 4726 1118 4726 1118 4723 1118 c 0,355,356
 4711 1118 4711 1118 4696 1106 c 0,357,358
 4679 1096 4679 1096 4679 1077 c 0,359,360
 4679 1053 4679 1053 4702 1044 c 0,361,362
 4731 1037 4731 1037 4813 1034 c 0,363,364
 4890 1032 4890 1032 4922 1024 c 0,365,366
 4956 1018 4956 1018 4981 990 c 0,367,368
 5005 963 5005 963 5005 923 c 0,369,370
 5005 801 5005 801 4789 801 c 0,371,372
 4686 801 4686 801 4640 832 c 0,373,374
 4593 862 4593 862 4593 914 c 0,375,376
 4593 976 4593 976 4658 1000 c 1,377,378
 4616 1027 4616 1027 4616 1069 c 0,379,380
 4616 1120 4616 1120 4676 1145 c 1,381,382
 4620 1190 4620 1190 4620 1259 c 0,383,384
 4620 1322 4620 1322 4668 1363 c 0,385,386
 4715 1404 4715 1404 4784 1404 c 0,387,388
 4832 1404 4832 1404 4872 1386 c 1,389,390
 4878 1427 4878 1427 4902 1444 c 0,391,392
 4924 1460 4924 1460 4972 1460 c 0,393,394
 4980 1460 4980 1460 4988 1459 c 1,340,-1
5218 1013 m 128,-1,396
 5130 1013 5130 1013 5080 1078 c 0,397,398
 5030 1145 5030 1145 5030 1241 c 0,399,400
 5030 1343 5030 1343 5086 1405 c 0,401,402
 5141 1466 5141 1466 5225 1466 c 0,403,404
 5313 1466 5313 1466 5365 1402 c 0,405,406
 5416 1336 5416 1336 5416 1241 c 0,407,408
 5416 1140 5416 1140 5361 1076 c 0,409,395
 5306 1013 5306 1013 5218 1013 c 128,-1,396
5223 1068 m 0,410,411
 5275 1068 5275 1068 5308 1110 c 0,412,413
 5343 1151 5343 1151 5343 1241 c 128,-1,414
 5343 1331 5343 1331 5307 1370 c 0,415,416
 5272 1411 5272 1411 5222 1411 c 0,417,418
 5173 1411 5173 1411 5138 1370 c 0,419,420
 5104 1330 5104 1330 5104 1242 c 0,421,422
 5104 1150 5104 1150 5138 1108 c 0,423,424
 5174 1068 5174 1068 5223 1068 c 0,410,411
5773 1594 m 1,425,-1
 5773 1520 l 1,426,-1
 5701 1520 l 1,427,-1
 5701 1594 l 1,428,-1
 5773 1594 l 1,425,-1
5770 1443 m 1,429,-1
 5770 1013 l 1,430,-1
 5704 1013 l 1,431,-1
 5704 1443 l 1,432,-1
 5770 1443 l 1,429,-1
6272 1013 m 1,433,-1
 6210 1013 l 1,434,-1
 6210 1289 l 2,435,436
 6210 1348 6210 1348 6184 1372 c 0,437,438
 6159 1397 6159 1397 6121 1397 c 0,439,440
 6070 1397 6070 1397 6035 1356 c 128,-1,441
 6000 1315 6000 1315 6000 1248 c 2,442,-1
 6000 1013 l 1,443,-1
 5933 1013 l 1,444,-1
 5933 1442 l 1,445,-1
 5996 1442 l 1,446,-1
 5996 1363 l 1,447,448
 6048 1454 6048 1454 6131 1454 c 0,449,450
 6179 1454 6179 1454 6213 1429 c 128,-1,451
 6247 1404 6247 1404 6260 1373 c 0,452,453
 6272 1342 6272 1342 6272 1261 c 2,454,-1
 6272 1013 l 1,433,-1
7689 1435 m 1,455,-1
 7689 1382 l 1,456,457
 7645 1382 7645 1382 7628 1372 c 0,458,459
 7611 1360 7611 1360 7607 1333 c 1,460,461
 7648 1286 7648 1286 7648 1230 c 0,462,463
 7648 1171 7648 1171 7603 1129 c 128,-1,464
 7558 1087 7558 1087 7482 1087 c 0,465,466
 7469 1087 7469 1087 7453 1089 c 0,467,468
 7428 1094 7428 1094 7424 1094 c 0,469,470
 7412 1094 7412 1094 7396 1082 c 0,471,472
 7380 1072 7380 1072 7380 1054 c 0,473,474
 7380 1029 7380 1029 7404 1020 c 0,475,476
 7432 1012 7432 1012 7513 1011 c 0,477,478
 7592 1008 7592 1008 7622 1000 c 0,479,480
 7655 994 7655 994 7682 966 c 0,481,482
 7706 939 7706 939 7706 900 c 0,483,484
 7706 777 7706 777 7490 777 c 0,485,486
 7386 777 7386 777 7340 808 c 0,487,488
 7293 838 7293 838 7293 890 c 0,489,490
 7293 952 7293 952 7359 976 c 1,491,492
 7316 1003 7316 1003 7316 1045 c 0,493,494
 7316 1096 7316 1096 7376 1121 c 1,495,496
 7320 1166 7320 1166 7320 1235 c 0,497,498
 7320 1298 7320 1298 7368 1340 c 0,499,500
 7417 1380 7417 1380 7484 1380 c 0,501,502
 7533 1380 7533 1380 7572 1362 c 1,503,504
 7579 1403 7579 1403 7602 1420 c 0,505,506
 7624 1436 7624 1436 7672 1436 c 0,507,508
 7681 1436 7681 1436 7689 1435 c 1,455,-1
7485 1138 m 0,509,510
 7526 1138 7526 1138 7554 1164 c 0,511,512
 7581 1189 7581 1189 7581 1232 c 0,513,514
 7581 1274 7581 1274 7553 1301 c 128,-1,515
 7525 1328 7525 1328 7485 1328 c 0,516,517
 7446 1328 7446 1328 7418 1303 c 0,518,519
 7389 1277 7389 1277 7389 1231 c 0,520,521
 7389 1188 7389 1188 7416 1164 c 0,522,523
 7441 1138 7441 1138 7485 1138 c 0,509,510
7405 956 m 1,524,525
 7358 936 7358 936 7358 897 c 0,526,527
 7358 864 7358 864 7396 846 c 0,528,529
 7435 828 7435 828 7494 828 c 0,530,531
 7551 828 7551 828 7596 844 c 0,532,533
 7642 859 7642 859 7642 896 c 0,534,535
 7642 915 7642 915 7628 929 c 0,536,537
 7615 942 7615 942 7590 945 c 0,538,539
 7563 949 7563 949 7508 950 c 0,540,541
 7438 951 7438 951 7405 956 c 1,524,525
6958 1013 m 1,542,-1
 6892 1013 l 1,543,544
 6889 1027 6889 1027 6884 1091 c 1,545,546
 6840 1002 6840 1002 6734 1002 c 0,547,548
 6662 1002 6662 1002 6622 1040 c 0,549,550
 6584 1078 6584 1078 6584 1132 c 0,551,552
 6584 1198 6584 1198 6640 1239 c 0,553,554
 6694 1281 6694 1281 6827 1281 c 0,555,556
 6832 1281 6832 1281 6884 1279 c 1,557,558
 6884 1333 6884 1333 6876 1353 c 0,559,560
 6871 1373 6871 1373 6844 1390 c 1,561,562
 6815 1403 6815 1403 6776 1403 c 0,563,564
 6674 1403 6674 1403 6658 1325 c 1,565,-1
 6596 1336 l 1,566,567
 6619 1455 6619 1455 6786 1455 c 0,568,569
 6874 1455 6874 1455 6912 1416 c 0,570,571
 6949 1376 6949 1376 6949 1279 c 2,572,-1
 6949 1097 l 2,573,574
 6949 1050 6949 1050 6958 1013 c 1,542,-1
6884 1228 m 1,575,576
 6844 1231 6844 1231 6822 1231 c 0,577,578
 6743 1231 6743 1231 6699 1205 c 128,-1,579
 6655 1179 6655 1179 6655 1129 c 0,580,581
 6655 1098 6655 1098 6679 1075 c 0,582,583
 6702 1053 6702 1053 6747 1053 c 0,584,585
 6808 1053 6808 1053 6847 1097 c 128,-1,586
 6886 1141 6886 1141 6886 1200 c 0,587,588
 6886 1206 6886 1206 6884 1228 c 1,575,576
8085 1013 m 1,589,-1
 8019 1013 l 1,590,591
 8016 1027 8016 1027 8011 1091 c 1,592,593
 7967 1002 7967 1002 7861 1002 c 0,594,595
 7788 1002 7788 1002 7750 1040 c 0,596,597
 7711 1079 7711 1079 7711 1132 c 0,598,599
 7711 1197 7711 1197 7766 1239 c 0,600,601
 7822 1281 7822 1281 7954 1281 c 0,602,603
 7959 1281 7959 1281 8011 1279 c 1,604,605
 8011 1327 8011 1327 8004 1353 c 0,606,607
 7995 1375 7995 1375 7970 1390 c 0,608,609
 7942 1403 7942 1403 7903 1403 c 0,610,611
 7801 1403 7801 1403 7784 1326 c 1,612,-1
 7723 1336 l 1,613,614
 7746 1455 7746 1455 7913 1455 c 0,615,616
 8002 1455 8002 1455 8038 1416 c 0,617,618
 8076 1377 8076 1377 8076 1279 c 2,619,-1
 8076 1097 l 2,620,621
 8076 1050 8076 1050 8085 1013 c 1,589,-1
8011 1228 m 1,622,623
 7970 1231 7970 1231 7949 1231 c 0,624,625
 7870 1231 7870 1231 7826 1205 c 128,-1,626
 7782 1179 7782 1179 7782 1129 c 0,627,628
 7782 1097 7782 1097 7806 1076 c 0,629,630
 7829 1053 7829 1053 7874 1053 c 0,631,632
 7935 1053 7935 1053 7974 1097 c 128,-1,633
 8013 1141 8013 1141 8013 1200 c 0,634,635
 8013 1206 8013 1206 8011 1228 c 1,622,623
793 1014 m 1,636,-1
 726 1014 l 1,637,-1
 726 1594 l 1,638,-1
 793 1594 l 1,639,-1
 793 1014 l 1,636,-1
8768 1012 m 1,640,-1
 8702 1012 l 1,641,642
 8699 1026 8699 1026 8694 1090 c 1,643,644
 8650 1001 8650 1001 8544 1001 c 0,645,646
 8471 1001 8471 1001 8432 1040 c 0,647,648
 8394 1078 8394 1078 8394 1131 c 0,649,650
 8394 1197 8394 1197 8450 1238 c 0,651,652
 8504 1280 8504 1280 8637 1280 c 0,653,654
 8642 1280 8642 1280 8694 1278 c 1,655,656
 8694 1332 8694 1332 8686 1352 c 0,657,658
 8680 1375 8680 1375 8654 1388 c 0,659,660
 8629 1402 8629 1402 8586 1402 c 0,661,662
 8485 1402 8485 1402 8468 1325 c 1,663,-1
 8406 1335 l 1,664,665
 8429 1454 8429 1454 8596 1454 c 0,666,667
 8685 1454 8685 1454 8722 1414 c 0,668,669
 8759 1376 8759 1376 8759 1278 c 2,670,-1
 8759 1096 l 2,671,672
 8759 1050 8759 1050 8768 1012 c 1,640,-1
8694 1227 m 1,673,674
 8654 1230 8654 1230 8632 1230 c 0,675,676
 8553 1230 8553 1230 8509 1204 c 128,-1,677
 8465 1178 8465 1178 8465 1128 c 0,678,679
 8465 1098 8465 1098 8489 1074 c 0,680,681
 8514 1052 8514 1052 8557 1052 c 0,682,683
 8618 1052 8618 1052 8657 1096 c 0,684,685
 8696 1139 8696 1139 8696 1199 c 0,686,687
 8696 1205 8696 1205 8694 1227 c 1,673,674
9163 1012 m 1,688,-1
 9086 1012 l 1,689,-1
 8977 1187 l 1,690,-1
 8865 1012 l 1,691,-1
 8800 1012 l 1,692,-1
 8944 1235 l 1,693,-1
 8814 1442 l 1,694,-1
 8891 1442 l 1,695,-1
 8983 1295 l 1,696,-1
 9076 1442 l 1,697,-1
 9141 1442 l 1,698,-1
 9016 1250 l 1,699,-1
 9163 1012 l 1,688,-1
3014 418 m 1,700,-1
 2841 -62 l 2,701,702
 2803 -166 2803 -166 2722 -166 c 0,703,704
 2696 -166 2696 -166 2664 -157 c 1,705,-1
 2664 -105 l 1,706,707
 2690 -111 2690 -111 2709 -111 c 0,708,709
 2742 -111 2742 -111 2762 -92 c 0,710,711
 2784 -74 2784 -74 2805 -4 c 1,712,-1
 2657 418 l 1,713,-1
 2725 418 l 1,714,-1
 2840 95 l 1,715,-1
 2958 418 l 1,716,-1
 3014 418 l 1,700,-1
10044 1442 m 1,717,-1
 10044 1389 l 1,718,-1
 9942 1389 l 1,719,-1
 9942 1012 l 1,720,-1
 9875 1012 l 1,721,-1
 9875 1389 l 1,722,-1
 9802 1389 l 1,723,-1
 9802 1442 l 1,724,-1
 9875 1442 l 1,725,726
 9876 1544 9876 1544 9915 1575 c 0,727,728
 9952 1605 9952 1605 10008 1605 c 0,729,730
 10034 1605 10034 1605 10069 1599 c 1,731,-1
 10069 1546 l 1,732,733
 10046 1551 10046 1551 10028 1551 c 0,734,735
 9985 1551 9985 1551 9963 1532 c 0,736,737
 9942 1511 9942 1511 9942 1459 c 2,738,-1
 9942 1442 l 1,739,-1
 10044 1442 l 1,717,-1
10456 1014 m 1,740,-1
 10389 1014 l 1,741,742
 10387 1026 10387 1026 10382 1091 c 1,743,744
 10338 1002 10338 1002 10231 1002 c 0,745,746
 10160 1002 10160 1002 10120 1040 c 0,747,748
 10081 1079 10081 1079 10081 1132 c 0,749,750
 10081 1196 10081 1196 10136 1239 c 0,751,752
 10193 1281 10193 1281 10325 1281 c 0,753,754
 10356 1281 10356 1281 10382 1280 c 1,755,756
 10382 1328 10382 1328 10374 1354 c 0,757,758
 10366 1375 10366 1375 10340 1390 c 0,759,760
 10314 1403 10314 1403 10273 1403 c 0,761,762
 10172 1403 10172 1403 10155 1326 c 1,763,-1
 10093 1337 l 1,764,765
 10115 1455 10115 1455 10283 1455 c 0,766,767
 10372 1455 10372 1455 10409 1416 c 0,768,769
 10446 1378 10446 1378 10446 1280 c 2,770,-1
 10446 1097 l 2,771,772
 10446 1050 10446 1050 10456 1014 c 1,740,-1
10382 1229 m 1,773,774
 10328 1231 10328 1231 10320 1231 c 0,775,776
 10241 1231 10241 1231 10197 1205 c 128,-1,777
 10153 1179 10153 1179 10153 1129 c 0,778,779
 10153 1099 10153 1099 10176 1076 c 0,780,781
 10199 1054 10199 1054 10245 1054 c 0,782,783
 10306 1054 10306 1054 10344 1098 c 0,784,785
 10383 1140 10383 1140 10383 1200 c 0,786,787
 10383 1218 10383 1218 10382 1229 c 1,773,774
10619 1014 m 1,788,-1
 10552 1014 l 1,789,-1
 10552 1443 l 1,790,-1
 10611 1443 l 1,791,-1
 10611 1343 l 1,792,793
 10643 1416 10643 1416 10674 1435 c 0,794,795
 10704 1456 10704 1456 10737 1456 c 0,796,797
 10742 1456 10742 1456 10764 1454 c 1,798,-1
 10764 1391 l 1,799,-1
 10750 1391 l 2,800,801
 10696 1391 10696 1391 10658 1350 c 0,802,803
 10622 1308 10622 1308 10619 1241 c 2,804,-1
 10619 1014 l 1,788,-1
242 430 m 1,805,-1
 242 377 l 1,806,-1
 140 377 l 1,807,-1
 140 0 l 1,808,-1
 73 0 l 1,809,-1
 73 377 l 1,810,-1
 0 377 l 1,811,-1
 0 430 l 1,812,-1
 73 430 l 1,813,814
 74 532 74 532 113 563 c 0,815,816
 150 593 150 593 206 593 c 0,817,818
 234 593 234 593 268 587 c 1,819,-1
 268 534 l 1,820,821
 243 539 243 539 226 539 c 0,822,823
 183 539 183 539 161 520 c 0,824,825
 140 499 140 499 140 447 c 2,826,-1
 140 430 l 1,827,-1
 242 430 l 1,805,-1
649 0 m 1,828,-1
 583 0 l 1,829,830
 580 13 580 13 575 77 c 1,831,832
 531 -12 531 -12 424 -12 c 0,833,834
 352 -12 352 -12 314 26 c 0,835,836
 275 65 275 65 275 118 c 0,837,838
 275 183 275 183 330 225 c 0,839,840
 386 267 386 267 518 267 c 0,841,842
 523 267 523 267 575 265 c 1,843,844
 575 314 575 314 567 340 c 0,845,846
 560 360 560 360 534 376 c 0,847,848
 505 389 505 389 466 389 c 0,849,850
 365 389 365 389 348 312 c 1,851,-1
 286 322 l 1,852,853
 309 441 309 441 476 441 c 0,854,855
 566 441 566 441 602 402 c 0,856,857
 640 363 640 363 640 265 c 2,858,-1
 640 83 l 2,859,860
 640 38 640 38 649 0 c 1,828,-1
575 214 m 1,861,862
 535 217 535 217 513 217 c 0,863,864
 434 217 434 217 390 191 c 128,-1,865
 346 165 346 165 346 115 c 0,866,867
 346 84 346 84 370 62 c 0,868,869
 392 40 392 40 438 40 c 0,870,871
 499 40 499 40 537 84 c 0,872,873
 576 126 576 126 576 186 c 0,874,875
 576 203 576 203 575 214 c 1,861,862
813 0 m 1,876,-1
 746 0 l 1,877,-1
 746 429 l 1,878,-1
 805 429 l 1,879,-1
 805 329 l 1,880,881
 837 402 837 402 868 421 c 0,882,883
 898 442 898 442 932 442 c 0,884,885
 936 442 936 442 958 440 c 1,886,-1
 958 377 l 1,887,-1
 944 377 l 2,888,889
 890 377 890 377 852 336 c 0,890,891
 816 294 816 294 813 227 c 2,892,-1
 813 0 l 1,876,-1
10880 1111 m 1,893,-1
 10880 1023 l 1,894,-1
 10817 904 l 1,895,-1
 10781 904 l 1,896,-1
 10831 1014 l 1,897,-1
 10787 1014 l 1,898,-1
 10787 1111 l 1,899,-1
 10880 1111 l 1,893,-1
1650 -1 m 1,900,-1
 1584 -1 l 1,901,902
 1581 13 1581 13 1576 77 c 1,903,904
 1532 -12 1532 -12 1426 -12 c 0,905,906
 1354 -12 1354 -12 1314 26 c 0,907,908
 1276 66 1276 66 1276 118 c 0,909,910
 1276 183 1276 183 1331 225 c 128,-1,911
 1386 267 1386 267 1519 267 c 0,912,913
 1524 267 1524 267 1576 265 c 1,914,915
 1576 315 1576 315 1568 339 c 0,916,917
 1561 361 1561 361 1534 376 c 0,918,919
 1508 389 1508 389 1468 389 c 0,920,921
 1366 389 1366 389 1349 312 c 1,922,-1
 1288 322 l 1,923,924
 1311 441 1311 441 1477 441 c 0,925,926
 1565 441 1565 441 1604 402 c 0,927,928
 1641 360 1641 360 1641 265 c 2,929,-1
 1641 83 l 2,930,931
 1641 36 1641 36 1650 -1 c 1,900,-1
1576 214 m 1,932,933
 1536 217 1536 217 1514 217 c 0,934,935
 1435 217 1435 217 1391 191 c 128,-1,936
 1347 165 1347 165 1347 115 c 0,937,938
 1347 83 1347 83 1370 62 c 0,939,940
 1393 39 1393 39 1439 39 c 0,941,942
 1500 39 1500 39 1538 83 c 0,943,944
 1577 127 1577 127 1577 186 c 0,945,946
 1577 203 1577 203 1576 214 c 1,932,933
2219 429 m 1,947,-1
 2096 -1 l 1,948,-1
 2042 -1 l 1,949,-1
 1945 318 l 1,950,-1
 1857 -1 l 1,951,-1
 1802 -1 l 1,952,-1
 1674 429 l 1,953,-1
 1741 429 l 1,954,-1
 1834 108 l 1,955,-1
 1923 429 l 1,956,-1
 1972 429 l 1,957,-1
 2069 107 l 1,958,-1
 2165 429 l 1,959,-1
 2219 429 l 1,947,-1
2602 1 m 1,960,-1
 2536 1 l 1,961,962
 2533 14 2533 14 2528 78 c 1,963,964
 2484 -11 2484 -11 2377 -11 c 0,965,966
 2305 -11 2305 -11 2266 28 c 0,967,968
 2227 65 2227 65 2227 119 c 0,969,970
 2227 183 2227 183 2282 226 c 0,971,972
 2339 268 2339 268 2471 268 c 0,973,974
 2476 268 2476 268 2528 266 c 1,975,976
 2528 316 2528 316 2520 340 c 0,977,978
 2512 365 2512 365 2486 376 c 1,979,980
 2464 390 2464 390 2419 390 c 0,981,982
 2318 390 2318 390 2301 313 c 1,983,-1
 2239 323 l 1,984,985
 2262 442 2262 442 2429 442 c 0,986,987
 2517 442 2517 442 2556 402 c 0,988,989
 2593 362 2593 362 2593 266 c 2,990,-1
 2593 84 l 2,991,992
 2593 38 2593 38 2602 1 c 1,960,-1
2528 215 m 1,993,994
 2488 218 2488 218 2466 218 c 0,995,996
 2387 218 2387 218 2343 192 c 128,-1,997
 2299 166 2299 166 2299 116 c 0,998,999
 2299 86 2299 86 2322 63 c 0,1000,1001
 2345 41 2345 41 2391 41 c 0,1002,1003
 2450 41 2450 41 2490 84 c 0,1004,1005
 2529 129 2529 129 2529 187 c 0,1006,1007
 2529 204 2529 204 2528 215 c 1,993,994
9566 1442 m 1,1008,-1
 9393 962 l 2,1009,1010
 9355 858 9355 858 9274 858 c 0,1011,1012
 9248 858 9248 858 9216 867 c 1,1013,-1
 9216 919 l 1,1014,1015
 9244 914 9244 914 9261 914 c 0,1016,1017
 9293 914 9293 914 9314 932 c 0,1018,1019
 9336 950 9336 950 9357 1020 c 1,1020,-1
 9209 1442 l 1,1021,-1
 9277 1442 l 1,1022,-1
 9391 1119 l 1,1023,-1
 9509 1442 l 1,1024,-1
 9566 1442 l 1,1008,-1
3712 96 m 1,1025,-1
 3712 1 l 1,1026,-1
 3617 1 l 1,1027,-1
 3617 96 l 1,1028,-1
 3712 96 l 1,1025,-1
3452 96 m 1,1029,-1
 3452 1 l 1,1030,-1
 3357 1 l 1,1031,-1
 3357 96 l 1,1032,-1
 3452 96 l 1,1029,-1
3187 96 m 1,1033,-1
 3187 1 l 1,1034,-1
 3092 1 l 1,1035,-1
 3092 96 l 1,1036,-1
 3187 96 l 1,1033,-1
EndSplineSet
Validated: 1
EndChar

StartChar: M
Encoding: 77 77 48
Width: 962
GlyphClass: 2
Flags: W
LayerCount: 2
Fore
SplineSet
0 0 m 1,0,-1
 141 0 l 1,1,-1
 141 1161 l 1,2,-1
 340 0 l 1,3,-1
 520 0 l 1,4,-1
 721 1161 l 1,5,-1
 721 0 l 1,6,-1
 862 0 l 1,7,-1
 862 1500 l 1,8,-1
 609 1500 l 1,9,-1
 431 278 l 1,10,-1
 253 1500 l 1,11,-1
 0 1500 l 1,12,-1
 0 0 l 1,0,-1
EndSplineSet
Validated: 9
EndChar

StartChar: N
Encoding: 78 78 49
Width: 661
GlyphClass: 2
Flags: W
LayerCount: 2
Fore
SplineSet
0 0 m 1,0,-1
 161 0 l 1,1,-1
 160 1113 l 1,2,-1
 346 0 l 1,3,-1
 561 0 l 1,4,-1
 561 1500 l 1,5,-1
 420 1500 l 1,6,-1
 420 408 l 1,7,-1
 222 1500 l 1,8,-1
 0 1500 l 1,9,-1
 0 0 l 1,0,-1
EndSplineSet
Validated: 9
EndChar

StartChar: O
Encoding: 79 79 50
Width: 529
GlyphClass: 2
Flags: W
LayerCount: 2
Fore
SplineSet
277 183 m 0,0,1
 276 128 276 128 212 128 c 0,2,3
 149 129 149 129 148 181 c 2,4,-1
 148 1305 l 1,5,6
 154 1358 154 1358 212 1357 c 0,7,8
 271 1355 271 1355 278 1304 c 0,9,10
 277 1295 277 1295 277 183 c 0,0,1
0 1271 m 2,11,-1
 0 219 l 2,12,13
 0 -2 0 -2 216 0 c 0,14,15
 431 0 431 0 430 223 c 2,16,-1
 430 1272 l 1,17,18
 426 1500 426 1500 208 1500 c 0,19,20
 1 1500 1 1500 0 1271 c 2,11,-1
EndSplineSet
Validated: 41
EndChar

StartChar: P
Encoding: 80 80 51
Width: 527
GlyphClass: 2
Flags: W
LayerCount: 2
Fore
SplineSet
1 1501 m 1,0,1
 1 1281 1 1281 0 1219 c 2,2,-1
 0 0 l 1,3,-1
 148 0 l 1,4,-1
 148 686 l 1,5,-1
 316 685 l 1,6,7
 427 724 427 724 427 843 c 2,8,-1
 427 1339 l 2,9,10
 427 1383 427 1383 404 1432 c 0,11,12
 380 1481 380 1481 257 1500 c 1,13,14
 143 1500 143 1500 1 1501 c 1,0,1
277 912 m 0,15,16
 274 821 274 821 222 820 c 0,17,18
 171 818 171 818 147 820 c 1,19,-1
 147 1380 l 1,20,-1
 212 1380 l 2,21,22
 274 1380 274 1380 277 1324 c 0,23,24
 279 1298 279 1298 277 912 c 0,15,16
EndSplineSet
Validated: 41
EndChar

StartChar: Q
Encoding: 81 81 52
Width: 529
GlyphClass: 2
Flags: W
LayerCount: 2
Fore
SplineSet
277 183 m 0,0,1
 276 128 276 128 212 128 c 0,2,3
 149 129 149 129 148 181 c 2,4,-1
 148 1305 l 1,5,6
 154 1358 154 1358 212 1357 c 0,7,8
 271 1355 271 1355 278 1304 c 0,9,10
 277 1295 277 1295 277 183 c 0,0,1
0 1271 m 2,11,-1
 0 219 l 2,12,13
 0 -2 0 -2 216 0 c 1,14,-1
 217 -9 l 1,15,-1
 430 -9 l 1,16,-1
 430 89 l 1,17,-1
 373 89 l 1,18,19
 420 106 420 106 430 223 c 1,20,-1
 430 1272 l 1,21,22
 426 1500 426 1500 208 1500 c 0,23,24
 1 1500 1 1500 0 1271 c 2,11,-1
EndSplineSet
Validated: 41
EndChar

StartChar: R
Encoding: 82 82 53
Width: 528
GlyphClass: 2
Flags: W
LayerCount: 2
Fore
SplineSet
1 1501 m 1,0,1
 1 1281 1 1281 0 1219 c 2,2,-1
 0 0 l 1,3,-1
 140 0 l 1,4,-1
 139 661 l 1,5,6
 215 669 215 669 253 646.5 c 128,-1,7
 291 624 291 624 290 571 c 2,8,-1
 289 0 l 1,9,-1
 427 0 l 1,10,-1
 428 676 l 2,11,12
 428 745 428 745 366 765 c 1,13,14
 427 784 427 784 428 863 c 2,15,-1
 428 1055 l 1,16,-1
 428 1339 l 2,17,18
 426 1384 426 1384 404 1432 c 0,19,20
 380 1481 380 1481 257 1500 c 1,21,22
 143 1500 143 1500 1 1501 c 1,0,1
277 912 m 0,23,24
 274 821 274 821 222 820 c 0,25,26
 171 818 171 818 147 820 c 1,27,-1
 147 1380 l 1,28,-1
 212 1380 l 2,29,30
 274 1380 274 1380 277 1324 c 0,31,32
 279 1298 279 1298 277 912 c 0,23,24
EndSplineSet
Validated: 41
EndChar

StartChar: S
Encoding: 83 83 54
Width: 3410
GlyphClass: 2
Flags: W
LayerCount: 2
Fore
SplineSet
410 1442 m 0,0,1
 370 1385 370 1385 360 1335 c 0,2,3
 348 1283 348 1283 369 1216 c 1,4,-1
 384 1185 l 1,5,6
 480 1055 480 1055 484 1044 c 1,7,-1
 471 1042 l 1,8,-1
 -50 1042 l 1,9,-1
 -50 768 l 1,10,-1
 667 768 l 2,11,12
 685 766 685 766 706 775 c 2,13,-1
 752 794 l 1,14,15
 815 833 815 833 832 934 c 0,16,17
 848 1036 848 1036 712 1207 c 1,18,19
 664 1257 664 1257 719 1263 c 1,20,-1
 1002 1263 l 1,21,-1
 1002 768 l 1,22,-1
 1265 768 l 1,23,-1
 1265 1259 l 1,24,-1
 1566 1259 l 1,25,-1
 1566 1500 l 1,26,-1
 513 1500 l 1,27,28
 450 1496 450 1496 410 1442 c 0,0,1
1462 768 m 1,29,-1
 1732 768 l 1,30,-1
 1749 866 l 1,31,-1
 2007 866 l 1,32,-1
 2033 768 l 1,33,-1
 2298 768 l 1,34,-1
 2062 1500 l 1,35,-1
 1712 1500 l 1,36,-1
 1462 768 l 1,29,-1
2346 768 m 1,37,-1
 2625 768 l 1,38,-1
 2625 944 l 1,39,-1
 2835 768 l 1,40,-1
 3311 768 l 1,41,-1
 3311 1020 l 1,42,-1
 2975 1020 l 1,43,-1
 2937 1053 l 1,44,45
 3035 1100 3035 1100 3054 1196 c 0,46,47
 3074 1277 3074 1277 3042 1343 c 0,48,49
 2998 1444 2998 1444 2934 1472 c 0,50,51
 2871 1502 2871 1502 2798 1500 c 2,52,-1
 2346 1500 l 1,53,-1
 2346 768 l 1,37,-1
1521 1452 m 1,54,-1
 1521 1298 l 1,55,-1
 1218 1298 l 1,56,-1
 1218 811 l 1,57,-1
 1053 811 l 1,58,-1
 1053 1298 l 1,59,-1
 708 1300 l 2,60,61
 665 1300 665 1300 652 1292 c 0,62,63
 636 1287 636 1287 631 1267 c 0,64,65
 627 1249 627 1249 634 1233 c 0,66,67
 640 1216 640 1216 668 1184 c 0,68,69
 695 1154 695 1154 734 1092 c 1,70,71
 838 904 838 904 700 822 c 0,72,73
 680 809 680 809 665 811 c 2,74,-1
 -6 811 l 1,75,-1
 -6 1000 l 1,76,-1
 485 1000 l 2,77,78
 530 1000 530 1000 537 1020 c 0,79,80
 545 1039 545 1039 539 1057 c 1,81,82
 420 1228 420 1228 407 1282 c 128,-1,83
 394 1336 394 1336 476 1435 c 1,84,85
 500 1454 500 1454 530 1452 c 2,86,-1
 1521 1452 l 1,54,-1
2021 1452 m 1,87,-1
 2231 811 l 1,88,-1
 2055 811 l 1,89,-1
 2033 907 l 1,90,-1
 1719 907 l 1,91,-1
 1705 811 l 1,92,-1
 1521 811 l 1,93,-1
 1736 1452 l 1,94,-1
 2021 1452 l 1,87,-1
2700 1452 m 1,95,-1
 2810 1452 l 1,96,97
 2916 1442 2916 1442 2951 1394 c 0,98,99
 2985 1346 2985 1346 3002 1290 c 0,100,101
 3017 1233 3017 1233 2986 1168 c 0,102,103
 2956 1104 2956 1104 2877 1076 c 1,104,-1
 2877 1035 l 1,105,-1
 2931 983 l 1,106,-1
 3265 983 l 1,107,-1
 3265 811 l 1,108,-1
 2852 811 l 1,109,110
 2609 1030 2609 1030 2602 1037 c 128,-1,111
 2595 1044 2595 1044 2575 1042 c 1,112,-1
 2575 811 l 1,113,-1
 2386 811 l 1,114,-1
 2386 1452 l 1,115,-1
 2700 1452 l 1,95,-1
1769 1040 m 1,116,-1
 1986 1040 l 1,117,-1
 1881 1357 l 1,118,-1
 1769 1040 l 1,116,-1
2575 1159 m 1,119,-1
 2794 1159 l 2,120,121
 2858 1159 2858 1159 2859 1238 c 128,-1,122
 2860 1317 2860 1317 2794 1317 c 2,123,-1
 2575 1317 l 1,124,-1
 2575 1159 l 1,119,-1
2766 1278 m 2,125,126
 2802 1278 2802 1278 2802 1238 c 0,127,128
 2803 1198 2803 1198 2764 1198 c 2,129,-1
 2625 1198 l 1,130,-1
 2625 1278 l 1,131,-1
 2766 1278 l 2,125,126
1925 1089 m 1,132,-1
 1832 1089 l 1,133,-1
 1881 1216 l 1,134,-1
 1925 1089 l 1,132,-1
189 -1 m 1,135,-1
 378 -1 l 1,136,-1
 482 297 l 1,137,-1
 582 -1 l 1,138,-1
 773 -1 l 1,139,-1
 1014 733 l 1,140,-1
 745 733 l 1,141,-1
 678 553 l 1,142,-1
 619 733 l 1,143,-1
 359 733 l 1,144,-1
 291 540 l 1,145,-1
 228 733 l 1,146,-1
 -26 733 l 1,147,-1
 189 -1 l 1,135,-1
1797 -1 m 1,148,-1
 2075 -1 l 1,149,-1
 2075 179 l 1,150,-1
 2273 -1 l 1,151,-1
 2929 -1 l 2,152,153
 3013 0 3013 0 3038 19 c 0,154,155
 3062 37 3062 37 3082 60 c 0,156,157
 3103 83 3103 83 3120 142 c 0,158,159
 3136 202 3136 202 3117 260 c 0,160,161
 3099 315 3099 315 3080 342 c 0,162,163
 3074 352 3074 352 3064 366 c 128,-1,164
 3054 380 3054 380 3051 384 c 0,165,166
 3026 416 3026 416 3006 438 c 0,167,168
 2975 477 2975 477 2996 480 c 0,169,170
 3020 483 3020 483 3044 483 c 2,171,-1
 3311 483 l 1,172,-1
 3311 733 l 1,173,-1
 2840 733 l 2,174,175
 2808 733 2808 733 2782 726 c 0,176,177
 2755 715 2755 715 2750 712 c 0,178,179
 2691 660 2691 660 2671 602 c 0,180,181
 2652 546 2652 546 2654 508 c 0,182,183
 2657 473 2657 473 2666 449 c 0,184,185
 2675 428 2675 428 2690 400 c 0,186,187
 2701 380 2701 380 2712 365 c 2,188,-1
 2730 344 l 2,189,190
 2732 341 2732 341 2736.5 337 c 128,-1,191
 2741 333 2741 333 2748.5 325.5 c 128,-1,192
 2756 318 2756 318 2762 312 c 0,193,194
 2778 298 2778 298 2796 280 c 0,195,196
 2805 271 2805 271 2787 266 c 1,197,-1
 2427 266 l 1,198,-1
 2392 283 l 1,199,200
 2489 311 2489 311 2512 448 c 0,201,202
 2533 585 2533 585 2452 658 c 0,203,204
 2372 732 2372 732 2257 733 c 2,205,-1
 1797 733 l 1,206,-1
 1797 -1 l 1,148,-1
886 -1 m 1,207,-1
 1156 -1 l 1,208,-1
 1173 97 l 1,209,-1
 1430 97 l 1,210,-1
 1454 -1 l 1,211,-1
 1721 -1 l 1,212,-1
 1486 731 l 1,213,-1
 1136 731 l 1,214,-1
 886 -1 l 1,207,-1
1445 683 m 1,215,-1
 1653 40 l 1,216,-1
 1490 40 l 1,217,-1
 1466 138 l 1,218,-1
 1132 138 l 1,219,-1
 1117 40 l 1,220,-1
 945 40 l 1,221,-1
 1160 683 l 1,222,-1
 1445 683 l 1,215,-1
41 681 m 1,223,-1
 183 681 l 1,224,-1
 271 423 l 1,225,-1
 315 423 l 1,226,-1
 409 681 l 1,227,-1
 576 681 l 1,228,-1
 661 434 l 1,229,-1
 695 434 l 1,230,-1
 782 681 l 1,231,-1
 952 681 l 1,232,-1
 750 47 l 1,233,-1
 614 47 l 1,234,-1
 500 418 l 1,235,-1
 461 418 l 1,236,-1
 337 47 l 1,237,-1
 213 47 l 1,238,-1
 41 681 l 1,223,-1
2268 681 m 1,239,240
 2474 649 2474 649 2459 453 c 1,241,242
 2430 334 2430 334 2312 295 c 1,243,-1
 2312 258 l 1,244,-1
 2407 221 l 1,245,-1
 2418 221 l 1,246,-1
 2811 221 l 2,247,248
 2836 220 2836 220 2866 234 c 0,249,250
 2893 249 2893 249 2842 305 c 1,251,252
 2724 409 2724 409 2706 488 c 0,253,254
 2688 566 2688 566 2764 657 c 0,255,256
 2787 683 2787 683 2844 681 c 2,257,-1
 3265 681 l 1,258,-1
 3263 522 l 1,259,-1
 3052 522 l 2,260,261
 2954 524 2954 524 2942 495 c 0,262,263
 2931 466 2931 466 2974 409 c 1,264,265
 3140 218 3140 218 3037 82 c 0,266,267
 3005 44 3005 44 2944 47 c 2,268,-1
 2292 47 l 1,269,-1
 2071 260 l 1,270,-1
 2023 260 l 1,271,-1
 2023 47 l 1,272,-1
 1853 47 l 1,273,-1
 1853 681 l 1,274,-1
 2268 681 l 1,239,240
1191 270 m 1,275,-1
 1410 270 l 1,276,-1
 1304 586 l 1,277,-1
 1191 270 l 1,275,-1
1349 320 m 1,278,-1
 1256 320 l 1,279,-1
 1304 446 l 1,280,-1
 1349 320 l 1,278,-1
2003 407 m 1,281,-1
 2222 407 l 2,282,283
 2286 407 2286 407 2287 486 c 128,-1,284
 2288 565 2288 565 2222 565 c 2,285,-1
 2003 565 l 1,286,-1
 2003 407 l 1,281,-1
2194 526 m 2,287,288
 2230 526 2230 526 2230 486 c 0,289,290
 2231 446 2231 446 2192 446 c 2,291,-1
 2053 446 l 1,292,-1
 2053 526 l 1,293,-1
 2194 526 l 2,287,288
EndSplineSet
Validated: 41
EndChar

StartChar: T
Encoding: 84 84 55
Width: 551
GlyphClass: 2
Flags: W
LayerCount: 2
Fore
SplineSet
0 1355 m 1,0,-1
 152 1356 l 1,1,-1
 152 -1 l 1,2,-1
 297 0 l 1,3,-1
 297 1356 l 1,4,-1
 452 1356 l 1,5,-1
 451 1500 l 1,6,-1
 0 1500 l 1,7,-1
 0 1355 l 1,0,-1
EndSplineSet
Validated: 9
EndChar

StartChar: U
Encoding: 85 85 56
Width: 529
GlyphClass: 2
Flags: W
LayerCount: 2
Fore
SplineSet
0 219 m 2,0,1
 0 -2 0 -2 216 0 c 0,2,3
 431 0 431 0 430 223 c 2,4,-1
 430 1500 l 1,5,-1
 279 1500 l 1,6,-1
 280 205 l 2,7,8
 278 137 278 137 214 137 c 0,9,10
 147 137 147 137 149 205 c 2,11,-1
 148 1500 l 1,12,-1
 1 1500 l 1,13,-1
 0 219 l 2,0,1
EndSplineSet
Validated: 41
EndChar

StartChar: V
Encoding: 86 86 57
Width: 804
GlyphClass: 2
Flags: W
LayerCount: 2
Fore
SplineSet
321 1 m 1,0,-1
 474 0 l 1,1,-1
 752 1500 l 1,2,-1
 622 1500 l 1,3,-1
 409 376 l 1,4,-1
 382 376 l 1,5,-1
 187 1500 l 1,6,-1
 48 1500 l 1,7,-1
 321 1 l 1,0,-1
EndSplineSet
Validated: 9
EndChar

StartChar: W
Encoding: 87 87 58
Width: 661
GlyphClass: 2
Flags: W
LayerCount: 2
Fore
SplineSet
0 1500 m 1,0,-1
 136 1500 l 1,1,-1
 171 549 l 1,2,-1
 255 1500 l 1,3,-1
 439 1500 l 1,4,-1
 525 549 l 1,5,-1
 560 1500 l 1,6,-1
 696 1500 l 1,7,-1
 611 0 l 1,8,-1
 419 0 l 1,9,-1
 348 1102 l 1,10,-1
 277 0 l 1,11,-1
 85 0 l 1,12,-1
 0 1500 l 1,0,-1
EndSplineSet
Validated: 1
EndChar

StartChar: X
Encoding: 88 88 59
Width: 853
GlyphClass: 2
Flags: W
LayerCount: 2
Fore
SplineSet
282 787 m 1,0,-1
 0 0 l 1,1,-1
 169 0 l 1,2,-1
 375 544 l 1,3,-1
 574 0 l 1,4,-1
 753 0 l 1,5,-1
 479 789 l 1,6,-1
 753 1500 l 1,7,-1
 583 1500 l 1,8,-1
 375 953 l 1,9,-1
 150 1500 l 1,10,-1
 0 1500 l 1,11,-1
 282 787 l 1,0,-1
EndSplineSet
Validated: 9
EndChar

StartChar: Y
Encoding: 89 89 60
Width: 853
GlyphClass: 2
Flags: W
LayerCount: 2
Fore
SplineSet
302 787 m 1,0,-1
 300 0 l 1,1,-1
 459 0 l 1,2,-1
 459 789 l 1,3,-1
 753 1500 l 1,4,-1
 583 1500 l 1,5,-1
 375 953 l 1,6,-1
 150 1500 l 1,7,-1
 0 1500 l 1,8,-1
 302 787 l 1,0,-1
EndSplineSet
Validated: 9
EndChar

StartChar: Z
Encoding: 90 90 61
Width: 699
GlyphClass: 2
Flags: W
LayerCount: 2
Fore
SplineSet
600 0 m 1,0,-1
 600 190 l 1,1,-1
 205 191 l 1,2,-1
 600 1315 l 1,3,-1
 600 1500 l 1,4,-1
 0 1500 l 1,5,-1
 0 1323 l 1,6,-1
 387 1323 l 1,7,-1
 0 174 l 1,8,-1
 0 0 l 1,9,-1
 600 0 l 1,0,-1
EndSplineSet
Validated: 9
EndChar

StartChar: bracketleft
Encoding: 91 91 62
Width: 523
GlyphClass: 2
Flags: W
LayerCount: 2
Fore
SplineSet
147 1365 m 1,0,-1
 501 1365 l 1,1,-1
 501 1250 l 1,2,-1
 341 1250 l 1,3,-1
 341 -227 l 1,4,-1
 501 -227 l 1,5,-1
 501 -342 l 1,6,-1
 147 -342 l 1,7,-1
 147 1365 l 1,0,-1
EndSplineSet
Validated: 1
EndChar

StartChar: backslash
Encoding: 92 92 63
Width: 977
GlyphClass: 2
Flags: W
LayerCount: 2
Fore
SplineSet
254 1365 m 1,0,-1
 1008 -342 l 1,1,-1
 852 -342 l 1,2,-1
 98 1365 l 1,3,-1
 254 1365 l 1,0,-1
EndSplineSet
Validated: 1
EndChar

StartChar: bracketright
Encoding: 93 93 64
Width: 523
GlyphClass: 2
Flags: W
LayerCount: 2
Fore
SplineSet
376 -342 m 1,0,-1
 22 -342 l 1,1,-1
 22 -227 l 1,2,-1
 183 -227 l 1,3,-1
 183 1250 l 1,4,-1
 22 1250 l 1,5,-1
 22 1365 l 1,6,-1
 376 1365 l 1,7,-1
 376 -342 l 1,0,-1
EndSplineSet
Validated: 1
EndChar

StartChar: asciicircum
Encoding: 94 94 65
Width: 1024
GlyphClass: 2
Flags: W
LayerCount: 2
Fore
SplineSet
266 703 m 1,0,-1
 22 703 l 1,1,-1
 360 1372 l 1,2,-1
 665 1372 l 1,3,-1
 1003 703 l 1,4,-1
 759 703 l 1,5,-1
 512 1187 l 1,6,-1
 266 703 l 1,0,-1
EndSplineSet
Validated: 1
EndChar

StartChar: underscore
Encoding: 95 95 66
Width: 1024
GlyphClass: 2
Flags: W
LayerCount: 2
Fore
SplineSet
0 -107 m 1,0,-1
 1024 -107 l 1,1,-1
 1024 -315 l 1,2,-1
 0 -315 l 1,3,-1
 0 -107 l 1,0,-1
EndSplineSet
Validated: 1
EndChar

StartChar: grave
Encoding: 96 96 67
Width: 1024
GlyphClass: 2
Flags: W
LayerCount: 2
Fore
SplineSet
666 1208 m 1,0,-1
 590 1131 l 1,1,-1
 237 1353 l 1,2,-1
 345 1489 l 1,3,-1
 666 1208 l 1,0,-1
EndSplineSet
Validated: 1
EndChar

StartChar: a
Encoding: 97 97 68
Width: 750
GlyphClass: 2
Flags: W
LayerCount: 2
Fore
SplineSet
0 0 m 1,0,-1
 159 0 l 1,1,-1
 231 426 l 1,2,-1
 431 426 l 1,3,-1
 492 -1 l 1,4,-1
 650 0 l 1,5,-1
 436 1500 l 1,6,-1
 222 1500 l 1,7,-1
 0 0 l 1,0,-1
348 1213 m 1,8,-1
 419 533 l 1,9,-1
 240 533 l 1,10,-1
 312 1214 l 1,11,-1
 348 1213 l 1,8,-1
EndSplineSet
Validated: 9
EndChar

StartChar: b
Encoding: 98 98 69
Width: 522
GlyphClass: 2
Flags: W
LayerCount: 2
Fore
SplineSet
1 1501 m 1,0,1
 1 1281 1 1281 0 1219 c 2,2,-1
 0 0 l 1,3,4
 268 2 268 2 297 0 c 1,5,6
 382 6 382 6 404 70 c 0,7,8
 427 134 427 134 427 263 c 2,9,-1
 428 676 l 2,10,11
 428 745 428 745 366 765 c 1,12,13
 427 784 427 784 427 863 c 2,14,-1
 427 1339 l 2,15,16
 427 1383 427 1383 404 1432 c 0,17,18
 380 1481 380 1481 257 1500 c 1,19,20
 143 1500 143 1500 1 1501 c 1,0,1
277 202 m 0,21,22
 274 111 274 111 222 110 c 0,23,24
 171 108 171 108 147 110 c 1,25,-1
 147 670 l 1,26,-1
 212 670 l 2,27,28
 274 670 274 670 277 614 c 0,29,30
 279 588 279 588 277 202 c 0,21,22
277 912 m 0,31,32
 274 821 274 821 222 820 c 0,33,34
 171 818 171 818 147 820 c 1,35,-1
 147 1380 l 1,36,-1
 212 1380 l 2,37,38
 274 1380 274 1380 277 1324 c 0,39,40
 279 1298 279 1298 277 912 c 0,31,32
EndSplineSet
Validated: 41
EndChar

StartChar: c
Encoding: 99 99 70
Width: 528
GlyphClass: 2
Flags: W
LayerCount: 2
Fore
SplineSet
0 1335 m 1,0,-1
 0 1222 l 1,1,-1
 0 169 l 1,2,3
 17 58 17 58 131 16 c 0,4,5
 247 -25 247 -25 339 38 c 0,6,7
 432 102 432 102 429 223 c 2,8,-1
 429 435 l 1,9,-1
 276 435 l 1,10,-1
 277 207 l 2,11,12
 275 142 275 142 214 142 c 0,13,14
 152 142 152 142 147 205 c 1,15,-1
 147 1299 l 1,16,17
 154 1359 154 1359 214 1361 c 0,18,19
 273 1363 273 1363 276 1312 c 0,20,21
 278 1285 278 1285 276 1078 c 1,22,-1
 429 1078 l 1,23,-1
 429 1343 l 2,24,25
 431 1389 431 1389 404 1430 c 1,26,27
 380 1474 380 1474 257 1500 c 1,28,29
 16 1509 16 1509 0 1335 c 1,0,-1
EndSplineSet
Validated: 41
EndChar

StartChar: d
Encoding: 100 100 71
Width: 516
GlyphClass: 2
Flags: W
LayerCount: 2
Fore
SplineSet
282 1069 m 2,0,-1
 283 448 l 1,1,-1
 282 212 l 2,2,3
 283 180 283 180 269.5 163.5 c 128,-1,4
 256 147 256 147 228 148 c 0,5,6
 173 149 173 149 148 148 c 1,7,-1
 148 1373 l 1,8,-1
 212 1373 l 2,9,10
 273 1373 273 1373 282 1312 c 0,11,12
 284 1286 284 1286 282 1069 c 2,0,-1
1 1501 m 1,13,14
 1 1282 1 1282 0 1220 c 2,15,-1
 0 0 l 1,16,-1
 297 0 l 2,17,18
 380 0 380 0 406 52 c 0,19,20
 431 104 431 104 429 225 c 2,21,-1
 429 435 l 1,22,-1
 430 1054 l 1,23,-1
 430 1339 l 2,24,25
 430 1385 430 1385 405 1442 c 0,26,27
 380 1500 380 1500 257 1500 c 0,28,29
 143 1500 143 1500 1 1501 c 1,13,14
EndSplineSet
Validated: 41
EndChar

StartChar: e
Encoding: 101 101 72
Width: 493
GlyphClass: 2
Flags: W
LayerCount: 2
Fore
SplineSet
0 0 m 1,0,-1
 393 0 l 1,1,-1
 393 143 l 1,2,-1
 143 143 l 1,3,-1
 143 714 l 1,4,-1
 393 714 l 1,5,-1
 393 857 l 1,6,-1
 143 857 l 1,7,-1
 143 1357 l 1,8,-1
 394 1357 l 1,9,-1
 393 1500 l 1,10,-1
 0 1500 l 1,11,-1
 0 0 l 1,0,-1
EndSplineSet
Validated: 9
EndChar

StartChar: f
Encoding: 102 102 73
Width: 493
GlyphClass: 2
Flags: W
LayerCount: 2
Fore
SplineSet
0 0 m 1,0,-1
 142 0 l 1,1,-1
 143 714 l 1,2,-1
 393 714 l 1,3,-1
 393 857 l 1,4,-1
 143 857 l 1,5,-1
 143 1357 l 1,6,-1
 394 1357 l 1,7,-1
 393 1500 l 1,8,-1
 0 1500 l 1,9,-1
 0 0 l 1,0,-1
EndSplineSet
Validated: 9
EndChar

StartChar: g
Encoding: 103 103 74
Width: 528
GlyphClass: 2
Flags: W
LayerCount: 2
Fore
SplineSet
256 611 m 1024,0,-1
429 745 m 1,1,-1
 429 223 l 2,2,3
 429 100 429 100 349 38 c 0,4,5
 267 -25 267 -25 141 16 c 0,6,7
 16 58 16 58 0 169 c 1,8,-1
 0 1222 l 1,9,-1
 0 1335 l 2,10,11
 0 1511 0 1511 257 1500 c 1,12,13
 370 1490 370 1490 404 1430 c 0,14,15
 429 1386 429 1386 429 1343 c 2,16,-1
 429 1176 l 1,17,-1
 276 1176 l 1,18,19
 275 1285 275 1285 276 1312 c 0,20,21
 276 1361 276 1361 215 1362 c 0,22,23
 147 1364 147 1364 147 1299 c 2,24,-1
 147 205 l 2,25,26
 147 142 147 142 212 142 c 128,-1,27
 277 142 277 142 277 213 c 2,28,-1
 278 634 l 1,29,-1
 227 634 l 1,30,-1
 227 745 l 1,31,-1
 429 745 l 1,1,-1
EndSplineSet
Validated: 33
EndChar

StartChar: h
Encoding: 104 104 75
Width: 581
GlyphClass: 2
Flags: W
LayerCount: 2
Fore
SplineSet
0 0 m 1,0,-1
 130 0 l 1,1,-1
 130 722 l 1,2,-1
 352 722 l 1,3,-1
 352 0 l 1,4,-1
 481 0 l 1,5,-1
 481 1500 l 1,6,-1
 352 1500 l 1,7,-1
 352 866 l 1,8,-1
 130 865 l 1,9,-1
 128 1500 l 1,10,-1
 0 1500 l 1,11,-1
 0 0 l 1,0,-1
EndSplineSet
Validated: 9
EndChar

StartChar: i
Encoding: 105 105 76
Width: 230
GlyphClass: 2
Flags: W
LayerCount: 2
Fore
SplineSet
0 0 m 1,0,-1
 130 0 l 1,1,-1
 130 1500 l 1,2,-1
 0 1500 l 1,3,-1
 0 0 l 1,0,-1
EndSplineSet
Validated: 9
EndChar

StartChar: j
Encoding: 106 106 77
Width: 528
GlyphClass: 2
Flags: W
LayerCount: 2
Fore
SplineSet
428 1501 m 1,0,-1
 428 169 l 1,1,2
 411 58 411 58 297 16 c 0,3,4
 181 -25 181 -25 89 38 c 0,5,6
 -4 102 -4 102 -1 223 c 2,7,-1
 -1 435 l 1,8,-1
 152 435 l 1,9,-1
 151 207 l 2,10,11
 153 142 153 142 214 142 c 0,12,13
 276 142 276 142 281 205 c 1,14,-1
 281 1500 l 1,15,-1
 428 1501 l 1,0,-1
EndSplineSet
Validated: 33
EndChar

StartChar: k
Encoding: 107 107 78
Width: 644
GlyphClass: 2
Flags: W
LayerCount: 2
Fore
SplineSet
144 945 m 1,0,-1
 144 1500 l 1,1,-1
 0 1500 l 1,2,-1
 0 0 l 1,3,-1
 144 0 l 1,4,-1
 144 630 l 1,5,-1
 361 0 l 1,6,-1
 545 0 l 1,7,-1
 264 847 l 1,8,-1
 541 1501 l 1,9,-1
 385 1500 l 1,10,-1
 144 945 l 1,0,-1
EndSplineSet
Validated: 9
EndChar

StartChar: l
Encoding: 108 108 79
Width: 493
GlyphClass: 2
Flags: W
LayerCount: 2
Fore
SplineSet
0 1500 m 1,0,-1
 142 1500 l 1,1,-1
 143 143 l 1,2,-1
 394 143 l 1,3,-1
 393 0 l 1,4,-1
 0 0 l 1,5,-1
 0 1500 l 1,0,-1
EndSplineSet
Validated: 1
EndChar

StartChar: m
Encoding: 109 109 80
Width: 962
GlyphClass: 2
Flags: W
LayerCount: 2
Fore
SplineSet
0 0 m 1,0,-1
 141 0 l 1,1,-1
 141 1161 l 1,2,-1
 340 0 l 1,3,-1
 520 0 l 1,4,-1
 721 1161 l 1,5,-1
 721 0 l 1,6,-1
 862 0 l 1,7,-1
 862 1500 l 1,8,-1
 609 1500 l 1,9,-1
 431 278 l 1,10,-1
 253 1500 l 1,11,-1
 0 1500 l 1,12,-1
 0 0 l 1,0,-1
EndSplineSet
Validated: 9
EndChar

StartChar: n
Encoding: 110 110 81
Width: 661
GlyphClass: 2
Flags: W
LayerCount: 2
Fore
SplineSet
0 0 m 1,0,-1
 161 0 l 1,1,-1
 160 1113 l 1,2,-1
 346 0 l 1,3,-1
 561 0 l 1,4,-1
 561 1500 l 1,5,-1
 420 1500 l 1,6,-1
 420 408 l 1,7,-1
 222 1500 l 1,8,-1
 0 1500 l 1,9,-1
 0 0 l 1,0,-1
EndSplineSet
Validated: 9
EndChar

StartChar: o
Encoding: 111 111 82
Width: 529
GlyphClass: 2
Flags: W
LayerCount: 2
Fore
SplineSet
277 183 m 0,0,1
 276 128 276 128 212 128 c 0,2,3
 149 129 149 129 148 181 c 2,4,-1
 148 1305 l 1,5,6
 154 1358 154 1358 212 1357 c 0,7,8
 271 1355 271 1355 278 1304 c 0,9,10
 277 1295 277 1295 277 183 c 0,0,1
0 1271 m 2,11,-1
 0 219 l 2,12,13
 0 -2 0 -2 216 0 c 0,14,15
 431 0 431 0 430 223 c 2,16,-1
 430 1272 l 1,17,18
 426 1500 426 1500 208 1500 c 0,19,20
 1 1500 1 1500 0 1271 c 2,11,-1
EndSplineSet
Validated: 41
EndChar

StartChar: p
Encoding: 112 112 83
Width: 527
GlyphClass: 2
Flags: W
LayerCount: 2
Fore
SplineSet
1 1501 m 1,0,1
 1 1281 1 1281 0 1219 c 2,2,-1
 0 0 l 1,3,-1
 148 0 l 1,4,-1
 148 686 l 1,5,-1
 316 685 l 1,6,7
 427 724 427 724 427 843 c 2,8,-1
 427 1055 l 1,9,-1
 427 1339 l 2,10,11
 427 1383 427 1383 404 1432 c 0,12,13
 380 1481 380 1481 257 1500 c 1,14,15
 143 1500 143 1500 1 1501 c 1,0,1
277 1138 m 2,16,-1
 278 1043 l 1,17,-1
 277 912 l 2,18,19
 274 821 274 821 222 820 c 0,20,21
 171 818 171 818 147 820 c 1,22,-1
 147 1380 l 1,23,-1
 212 1380 l 2,24,25
 274 1380 274 1380 277 1324 c 0,26,27
 278 1298 278 1298 277 1138 c 2,16,-1
EndSplineSet
Validated: 41
EndChar

StartChar: q
Encoding: 113 113 84
Width: 529
GlyphClass: 2
Flags: W
LayerCount: 2
Fore
SplineSet
277 183 m 0,0,1
 276 128 276 128 212 128 c 0,2,3
 149 129 149 129 148 181 c 2,4,-1
 148 1305 l 1,5,6
 154 1358 154 1358 212 1357 c 0,7,8
 271 1355 271 1355 278 1304 c 0,9,10
 277 1295 277 1295 277 183 c 0,0,1
0 1271 m 2,11,-1
 0 219 l 2,12,13
 0 -2 0 -2 216 0 c 1,14,-1
 217 -9 l 1,15,-1
 430 -9 l 1,16,-1
 430 89 l 1,17,-1
 373 89 l 1,18,19
 420 106 420 106 430 223 c 1,20,-1
 430 1272 l 1,21,22
 426 1500 426 1500 208 1500 c 0,23,24
 1 1500 1 1500 0 1271 c 2,11,-1
EndSplineSet
Validated: 41
EndChar

StartChar: r
Encoding: 114 114 85
Width: 527
GlyphClass: 2
Flags: W
LayerCount: 2
Fore
SplineSet
1 1501 m 1,0,1
 1 1281 1 1281 0 1219 c 2,2,-1
 0 0 l 1,3,-1
 140 0 l 1,4,-1
 139 661 l 1,5,6
 215 669 215 669 253 646.5 c 128,-1,7
 291 624 291 624 290 571 c 2,8,-1
 289 0 l 1,9,-1
 427 0 l 1,10,-1
 428 676 l 2,11,12
 428 745 428 745 366 765 c 1,13,14
 427 784 427 784 428 863 c 2,15,-1
 428 1055 l 1,16,-1
 428 1339 l 2,17,18
 426 1384 426 1384 404 1432 c 0,19,20
 380 1481 380 1481 257 1500 c 1,21,22
 143 1500 143 1500 1 1501 c 1,0,1
277 912 m 0,23,24
 274 821 274 821 222 820 c 0,25,26
 171 818 171 818 147 820 c 1,27,-1
 147 1380 l 1,28,-1
 212 1380 l 2,29,30
 274 1380 274 1380 277 1324 c 0,31,32
 279 1298 279 1298 277 912 c 0,23,24
EndSplineSet
Validated: 41
EndChar

StartChar: s
Encoding: 115 115 86
Width: 600
GlyphClass: 2
Flags: W
LayerCount: 2
Fore
SplineSet
0 397 m 1,0,-1
 149 397 l 1,1,2
 157 295 157 295 169 258 c 0,3,4
 182 218 182 218 203 205 c 128,-1,5
 224 192 224 192 244 187 c 256,6,7
 264 182 264 182 292 187 c 0,8,9
 319 191 319 191 333 234 c 0,10,11
 346 275 346 275 352 314 c 0,12,13
 357 353 357 353 348 419 c 1,14,15
 348 483 348 483 340 533 c 0,16,17
 333 577 333 577 306 623 c 1,18,19
 304 657 304 657 210 719 c 0,20,21
 113 785 113 785 81 825 c 1,22,23
 46 859 46 859 23 924 c 0,24,25
 1 989 1 989 1 1100 c 0,26,27
 1 1210 1 1210 28 1306 c 0,28,29
 56 1403 56 1403 106 1450 c 0,30,31
 157 1500 157 1500 238 1500 c 1,32,33
 358 1510 358 1510 420 1453 c 0,34,35
 480 1396 480 1396 492 1320 c 0,36,37
 503 1240 503 1240 500 1103 c 1,38,-1
 355 1103 l 1,39,40
 357 1243 357 1243 347 1283 c 0,41,42
 337 1326 337 1326 289 1338 c 0,43,44
 241 1352 241 1352 205 1326 c 0,45,46
 168 1299 168 1299 156 1252 c 0,47,48
 142 1206 142 1206 142 1113 c 0,49,50
 142 1033 142 1033 158 994 c 1,51,52
 163 944 163 944 267 886 c 0,53,54
 374 826 374 826 410 789 c 0,55,56
 474 719 474 719 486 636 c 0,57,58
 500 556 500 556 500 434 c 0,59,60
 500 322 500 322 480 216 c 0,61,62
 459 114 459 114 414 57 c 128,-1,63
 369 0 369 0 268 0 c 0,64,65
 151 0 151 0 100 58 c 0,66,67
 50 117 50 117 27 175 c 0,68,69
 3 235 3 235 0 397 c 1,0,-1
EndSplineSet
Validated: 33
EndChar

StartChar: t
Encoding: 116 116 87
Width: 551
GlyphClass: 2
Flags: W
LayerCount: 2
Fore
SplineSet
0 1355 m 1,0,-1
 152 1356 l 1,1,-1
 152 -1 l 1,2,-1
 297 0 l 1,3,-1
 297 1356 l 1,4,-1
 452 1356 l 1,5,-1
 451 1500 l 1,6,-1
 0 1500 l 1,7,-1
 0 1355 l 1,0,-1
EndSplineSet
Validated: 9
EndChar

StartChar: u
Encoding: 117 117 88
Width: 529
GlyphClass: 2
Flags: W
LayerCount: 2
Fore
SplineSet
0 219 m 2,0,1
 0 -2 0 -2 216 0 c 0,2,3
 431 0 431 0 430 223 c 2,4,-1
 430 1500 l 1,5,-1
 279 1500 l 1,6,-1
 280 205 l 2,7,8
 278 137 278 137 214 137 c 0,9,10
 147 137 147 137 149 205 c 2,11,-1
 148 1500 l 1,12,-1
 1 1500 l 1,13,-1
 0 219 l 2,0,1
EndSplineSet
Validated: 41
EndChar

StartChar: v
Encoding: 118 118 89
Width: 754
GlyphClass: 2
Flags: W
LayerCount: 2
Fore
SplineSet
272 1 m 1,0,-1
 425 0 l 1,1,-1
 703 1500 l 1,2,-1
 573 1500 l 1,3,-1
 360 376 l 1,4,-1
 333 376 l 1,5,-1
 138 1500 l 1,6,-1
 -1 1500 l 1,7,-1
 272 1 l 1,0,-1
EndSplineSet
Validated: 9
EndChar

StartChar: w
Encoding: 119 119 90
Width: 661
GlyphClass: 2
Flags: W
LayerCount: 2
Fore
SplineSet
0 1500 m 1,0,-1
 109 1500 l 1,1,-1
 138 549 l 1,2,-1
 206 1500 l 1,3,-1
 354 1500 l 1,4,-1
 423 549 l 1,5,-1
 452 1500 l 1,6,-1
 561 1500 l 1,7,-1
 492 0 l 1,8,-1
 338 0 l 1,9,-1
 280 1102 l 1,10,-1
 223 0 l 1,11,-1
 69 0 l 1,12,-1
 0 1500 l 1,0,-1
EndSplineSet
Validated: 1
EndChar

StartChar: x
Encoding: 120 120 91
Width: 853
GlyphClass: 2
Flags: W
LayerCount: 2
Fore
SplineSet
282 787 m 1,0,-1
 0 0 l 1,1,-1
 169 0 l 1,2,-1
 375 544 l 1,3,-1
 574 0 l 1,4,-1
 753 0 l 1,5,-1
 479 789 l 1,6,-1
 753 1500 l 1,7,-1
 583 1500 l 1,8,-1
 375 953 l 1,9,-1
 150 1500 l 1,10,-1
 0 1500 l 1,11,-1
 282 787 l 1,0,-1
EndSplineSet
Validated: 9
EndChar

StartChar: y
Encoding: 121 121 92
Width: 853
GlyphClass: 2
Flags: W
LayerCount: 2
Fore
SplineSet
302 787 m 1,0,-1
 300 0 l 1,1,-1
 459 0 l 1,2,-1
 459 789 l 1,3,-1
 753 1500 l 1,4,-1
 583 1500 l 1,5,-1
 375 953 l 1,6,-1
 150 1500 l 1,7,-1
 0 1500 l 1,8,-1
 302 787 l 1,0,-1
EndSplineSet
Validated: 9
EndChar

StartChar: z
Encoding: 122 122 93
Width: 699
GlyphClass: 2
Flags: W
LayerCount: 2
Fore
SplineSet
600 0 m 1,0,-1
 600 190 l 1,1,-1
 205 191 l 1,2,-1
 600 1315 l 1,3,-1
 600 1500 l 1,4,-1
 0 1500 l 1,5,-1
 0 1323 l 1,6,-1
 387 1323 l 1,7,-1
 0 174 l 1,8,-1
 0 0 l 1,9,-1
 600 0 l 1,0,-1
EndSplineSet
Validated: 9
EndChar

StartChar: braceleft
Encoding: 123 123 94
Width: 523
GlyphClass: 2
Flags: W
LayerCount: 2
Fore
SplineSet
498 1365 m 1,0,-1
 498 1246 l 1,1,2
 419 1245 419 1245 397 1212 c 0,3,4
 375 1181 375 1181 375 1046 c 2,5,-1
 375 830 l 2,6,7
 375 650 375 650 353 602 c 0,8,9
 330 552 330 552 250 524 c 1,10,11
 331 495 331 495 352 445 c 0,12,13
 375 398 375 398 375 217 c 2,14,-1
 375 -23 l 2,15,16
 375 -156 375 -156 396 -190 c 0,17,18
 418 -223 418 -223 498 -223 c 1,19,-1
 498 -342 l 1,20,21
 483 -342 483 -342 468.5 -342.5 c 128,-1,22
 454 -343 454 -343 447 -343.5 c 128,-1,23
 440 -344 440 -344 438 -344 c 0,24,25
 301 -344 301 -344 242 -276 c 0,26,27
 182 -210 182 -210 182 -23 c 2,28,-1
 182 221 l 2,29,30
 182 374 182 374 164 413 c 128,-1,31
 146 452 146 452 73 452 c 1,32,-1
 73 595 l 1,33,34
 144 595 144 595 164 633 c 0,35,36
 182 670 182 670 182 826 c 2,37,-1
 182 1046 l 2,38,39
 182 1241 182 1241 246 1304 c 128,-1,40
 310 1367 310 1367 434 1367 c 0,41,42
 436 1367 436 1367 498 1365 c 1,0,-1
EndSplineSet
Validated: 1
EndChar

StartChar: bar
Encoding: 124 124 95
Width: 1024
GlyphClass: 2
Flags: W
LayerCount: 2
Fore
SplineSet
396 1365 m 1,0,-1
 628 1365 l 1,1,-1
 628 -341 l 1,2,-1
 396 -341 l 1,3,-1
 396 1365 l 1,0,-1
EndSplineSet
Validated: 1
EndChar

StartChar: braceright
Encoding: 125 125 96
Width: 523
GlyphClass: 2
Flags: W
LayerCount: 2
Fore
SplineSet
25 -342 m 1,0,-1
 25 -223 l 1,1,2
 104 -223 104 -223 126 -190 c 0,3,4
 148 -158 148 -158 148 -23 c 2,5,-1
 148 217 l 2,6,7
 148 396 148 396 170 444 c 0,8,9
 191 494 191 494 273 524 c 1,10,11
 194 552 194 552 170 602 c 0,12,13
 148 654 148 654 148 830 c 2,14,-1
 148 1046 l 2,15,16
 148 1180 148 1180 126 1212 c 0,17,18
 103 1245 103 1245 25 1246 c 1,19,-1
 25 1365 l 1,20,21
 41 1365 41 1365 55 1365.5 c 128,-1,22
 69 1366 69 1366 76 1366.5 c 128,-1,23
 83 1367 83 1367 84 1367 c 0,24,25
 225 1367 225 1367 282 1297 c 0,26,27
 341 1228 341 1228 341 1046 c 2,28,-1
 341 826 l 2,29,30
 341 709 341 709 346 671 c 0,31,32
 350 637 350 637 376 616 c 128,-1,33
 402 595 402 595 450 595 c 1,34,-1
 450 452 l 1,35,36
 402 452 402 452 376 432 c 0,37,38
 352 411 352 411 346 377 c 0,39,40
 341 339 341 339 341 221 c 2,41,-1
 341 -23 l 2,42,43
 341 -218 341 -218 277 -281 c 0,44,45
 212 -344 212 -344 89 -344 c 0,46,47
 87 -344 87 -344 25 -342 c 1,0,-1
EndSplineSet
Validated: 1
EndChar

StartChar: asciitilde
Encoding: 126 126 97
Width: 1365
GlyphClass: 2
Flags: W
LayerCount: 2
Fore
SplineSet
304 487 m 1,0,-1
 187 564 l 1,1,2
 259 727 259 727 329 776 c 0,3,4
 400 824 400 824 483 824 c 0,5,6
 557 824 557 824 703 763 c 0,7,8
 840 706 840 706 891 706 c 0,9,10
 989 706 989 706 1057 828 c 1,11,-1
 1178 758 l 1,12,13
 1066 506 1066 506 864 506 c 0,14,15
 802 506 802 506 625 578 c 0,16,17
 514 624 514 624 467 624 c 0,18,19
 372 624 372 624 304 487 c 1,0,-1
EndSplineSet
Validated: 1
EndChar
